%TF.GenerationSoftware,KiCad,Pcbnew,(6.0.7)*%
%TF.CreationDate,2022-08-14T12:50:59+03:00*%
%TF.ProjectId,STM32F103C8T6,53544d33-3246-4313-9033-433854362e6b,rev?*%
%TF.SameCoordinates,Original*%
%TF.FileFunction,Copper,L1,Top*%
%TF.FilePolarity,Positive*%
%FSLAX46Y46*%
G04 Gerber Fmt 4.6, Leading zero omitted, Abs format (unit mm)*
G04 Created by KiCad (PCBNEW (6.0.7)) date 2022-08-14 12:50:59*
%MOMM*%
%LPD*%
G01*
G04 APERTURE LIST*
G04 Aperture macros list*
%AMRoundRect*
0 Rectangle with rounded corners*
0 $1 Rounding radius*
0 $2 $3 $4 $5 $6 $7 $8 $9 X,Y pos of 4 corners*
0 Add a 4 corners polygon primitive as box body*
4,1,4,$2,$3,$4,$5,$6,$7,$8,$9,$2,$3,0*
0 Add four circle primitives for the rounded corners*
1,1,$1+$1,$2,$3*
1,1,$1+$1,$4,$5*
1,1,$1+$1,$6,$7*
1,1,$1+$1,$8,$9*
0 Add four rect primitives between the rounded corners*
20,1,$1+$1,$2,$3,$4,$5,0*
20,1,$1+$1,$4,$5,$6,$7,0*
20,1,$1+$1,$6,$7,$8,$9,0*
20,1,$1+$1,$8,$9,$2,$3,0*%
G04 Aperture macros list end*
%TA.AperFunction,SMDPad,CuDef*%
%ADD10RoundRect,0.135000X-0.185000X0.135000X-0.185000X-0.135000X0.185000X-0.135000X0.185000X0.135000X0*%
%TD*%
%TA.AperFunction,SMDPad,CuDef*%
%ADD11RoundRect,0.135000X-0.135000X-0.185000X0.135000X-0.185000X0.135000X0.185000X-0.135000X0.185000X0*%
%TD*%
%TA.AperFunction,SMDPad,CuDef*%
%ADD12RoundRect,0.140000X0.140000X0.170000X-0.140000X0.170000X-0.140000X-0.170000X0.140000X-0.170000X0*%
%TD*%
%TA.AperFunction,ComponentPad*%
%ADD13R,1.700000X1.700000*%
%TD*%
%TA.AperFunction,ComponentPad*%
%ADD14O,1.700000X1.700000*%
%TD*%
%TA.AperFunction,SMDPad,CuDef*%
%ADD15RoundRect,0.218750X-0.256250X0.218750X-0.256250X-0.218750X0.256250X-0.218750X0.256250X0.218750X0*%
%TD*%
%TA.AperFunction,SMDPad,CuDef*%
%ADD16RoundRect,0.225000X-0.225000X-0.250000X0.225000X-0.250000X0.225000X0.250000X-0.225000X0.250000X0*%
%TD*%
%TA.AperFunction,SMDPad,CuDef*%
%ADD17RoundRect,0.140000X0.170000X-0.140000X0.170000X0.140000X-0.170000X0.140000X-0.170000X-0.140000X0*%
%TD*%
%TA.AperFunction,SMDPad,CuDef*%
%ADD18R,0.800000X1.000000*%
%TD*%
%TA.AperFunction,SMDPad,CuDef*%
%ADD19R,1.500000X0.700000*%
%TD*%
%TA.AperFunction,SMDPad,CuDef*%
%ADD20RoundRect,0.135000X0.185000X-0.135000X0.185000X0.135000X-0.185000X0.135000X-0.185000X-0.135000X0*%
%TD*%
%TA.AperFunction,SMDPad,CuDef*%
%ADD21RoundRect,0.250000X-0.250000X-0.475000X0.250000X-0.475000X0.250000X0.475000X-0.250000X0.475000X0*%
%TD*%
%TA.AperFunction,SMDPad,CuDef*%
%ADD22RoundRect,0.140000X-0.170000X0.140000X-0.170000X-0.140000X0.170000X-0.140000X0.170000X0.140000X0*%
%TD*%
%TA.AperFunction,SMDPad,CuDef*%
%ADD23R,1.200000X1.400000*%
%TD*%
%TA.AperFunction,SMDPad,CuDef*%
%ADD24RoundRect,0.075000X-0.662500X-0.075000X0.662500X-0.075000X0.662500X0.075000X-0.662500X0.075000X0*%
%TD*%
%TA.AperFunction,SMDPad,CuDef*%
%ADD25RoundRect,0.075000X-0.075000X-0.662500X0.075000X-0.662500X0.075000X0.662500X-0.075000X0.662500X0*%
%TD*%
%TA.AperFunction,SMDPad,CuDef*%
%ADD26RoundRect,0.140000X-0.140000X-0.170000X0.140000X-0.170000X0.140000X0.170000X-0.140000X0.170000X0*%
%TD*%
%TA.AperFunction,SMDPad,CuDef*%
%ADD27R,1.300000X0.450000*%
%TD*%
%TA.AperFunction,ComponentPad*%
%ADD28O,2.000000X1.450000*%
%TD*%
%TA.AperFunction,ComponentPad*%
%ADD29O,1.800000X1.150000*%
%TD*%
%TA.AperFunction,SMDPad,CuDef*%
%ADD30RoundRect,0.218750X0.256250X-0.218750X0.256250X0.218750X-0.256250X0.218750X-0.256250X-0.218750X0*%
%TD*%
%TA.AperFunction,SMDPad,CuDef*%
%ADD31R,1.500000X2.000000*%
%TD*%
%TA.AperFunction,SMDPad,CuDef*%
%ADD32R,3.800000X2.000000*%
%TD*%
%TA.AperFunction,SMDPad,CuDef*%
%ADD33RoundRect,0.250000X0.475000X-0.250000X0.475000X0.250000X-0.475000X0.250000X-0.475000X-0.250000X0*%
%TD*%
%TA.AperFunction,SMDPad,CuDef*%
%ADD34RoundRect,0.135000X0.135000X0.185000X-0.135000X0.185000X-0.135000X-0.185000X0.135000X-0.185000X0*%
%TD*%
%TA.AperFunction,ViaPad*%
%ADD35C,0.700000*%
%TD*%
%TA.AperFunction,Conductor*%
%ADD36C,0.300000*%
%TD*%
%TA.AperFunction,Conductor*%
%ADD37C,0.500000*%
%TD*%
%TA.AperFunction,Conductor*%
%ADD38C,0.200000*%
%TD*%
G04 APERTURE END LIST*
D10*
%TO.P,R5,1*%
%TO.N,+3.3V*%
X106875000Y-69240000D03*
%TO.P,R5,2*%
%TO.N,/USB_D+*%
X106875000Y-70260000D03*
%TD*%
D11*
%TO.P,R1,1*%
%TO.N,/PWR_LED_K*%
X114580000Y-77010000D03*
%TO.P,R1,2*%
%TO.N,GND*%
X115600000Y-77010000D03*
%TD*%
D12*
%TO.P,C7,1*%
%TO.N,+3.3V*%
X101760000Y-77500000D03*
%TO.P,C7,2*%
%TO.N,GND*%
X100800000Y-77500000D03*
%TD*%
%TO.P,C12,1*%
%TO.N,+3.3VA*%
X92300000Y-75350000D03*
%TO.P,C12,2*%
%TO.N,GND*%
X91340000Y-75350000D03*
%TD*%
D13*
%TO.P,J1,1,Pin_1*%
%TO.N,+3.3V*%
X97900000Y-58700000D03*
D14*
%TO.P,J1,2,Pin_2*%
%TO.N,/USART_TX1*%
X95360000Y-58700000D03*
%TO.P,J1,3,Pin_3*%
%TO.N,/USART_RX1*%
X92820000Y-58700000D03*
%TO.P,J1,4,Pin_4*%
%TO.N,GND*%
X90280000Y-58700000D03*
%TD*%
D15*
%TO.P,D1,1,K*%
%TO.N,/PWR_LED_K*%
X114610000Y-78542500D03*
%TO.P,D1,2,A*%
%TO.N,+3.3V*%
X114610000Y-80117500D03*
%TD*%
D16*
%TO.P,C3,1*%
%TO.N,+3.3V*%
X95225000Y-64000000D03*
%TO.P,C3,2*%
%TO.N,GND*%
X96775000Y-64000000D03*
%TD*%
D17*
%TO.P,C4,1*%
%TO.N,+3.3V*%
X92500000Y-68750000D03*
%TO.P,C4,2*%
%TO.N,GND*%
X92500000Y-67790000D03*
%TD*%
%TO.P,C11,1*%
%TO.N,+3.3VA*%
X92500000Y-72960000D03*
%TO.P,C11,2*%
%TO.N,GND*%
X92500000Y-72000000D03*
%TD*%
D18*
%TO.P,SW1,*%
%TO.N,*%
X84180000Y-63050000D03*
X81970000Y-70350000D03*
X84180000Y-70350000D03*
X81970000Y-63050000D03*
D19*
%TO.P,SW1,1,A*%
%TO.N,GND*%
X84830000Y-64450000D03*
%TO.P,SW1,2,B*%
%TO.N,/SW_BOOT0*%
X84830000Y-67450000D03*
%TO.P,SW1,3,C*%
%TO.N,+3.3V*%
X84830000Y-68950000D03*
%TD*%
D20*
%TO.P,R4,1*%
%TO.N,/SW_BOOT0*%
X86614000Y-65536000D03*
%TO.P,R4,2*%
%TO.N,/BOOT0*%
X86614000Y-64516000D03*
%TD*%
D21*
%TO.P,C1,1*%
%TO.N,VBUS*%
X104980000Y-74190000D03*
%TO.P,C1,2*%
%TO.N,GND*%
X106880000Y-74190000D03*
%TD*%
D22*
%TO.P,C8,1*%
%TO.N,+3.3V*%
X104500000Y-68540000D03*
%TO.P,C8,2*%
%TO.N,GND*%
X104500000Y-69500000D03*
%TD*%
D23*
%TO.P,Y1,1,1*%
%TO.N,/HSE_IN*%
X87750000Y-69000000D03*
%TO.P,Y1,2,2*%
%TO.N,GND*%
X87750000Y-71200000D03*
%TO.P,Y1,3,3*%
%TO.N,/HSE_OUT*%
X89450000Y-71200000D03*
%TO.P,Y1,4,4*%
%TO.N,GND*%
X89450000Y-69000000D03*
%TD*%
D13*
%TO.P,J2,1,Pin_1*%
%TO.N,+3.3V*%
X92390000Y-84200000D03*
D14*
%TO.P,J2,2,Pin_2*%
%TO.N,/I2C2_SCL*%
X94930000Y-84200000D03*
%TO.P,J2,3,Pin_3*%
%TO.N,/I2C2_SDA*%
X97470000Y-84200000D03*
%TO.P,J2,4,Pin_4*%
%TO.N,GND*%
X100010000Y-84200000D03*
%TD*%
D13*
%TO.P,J3,1,Pin_1*%
%TO.N,+3.3V*%
X109800000Y-58700000D03*
D14*
%TO.P,J3,2,Pin_2*%
%TO.N,/SWDIO*%
X107260000Y-58700000D03*
%TO.P,J3,3,Pin_3*%
%TO.N,/SWDCLK*%
X104720000Y-58700000D03*
%TO.P,J3,4,Pin_4*%
%TO.N,GND*%
X102180000Y-58700000D03*
%TD*%
D24*
%TO.P,U2,1,VBAT*%
%TO.N,+3.3V*%
X94337500Y-68750000D03*
%TO.P,U2,2,PC13*%
%TO.N,unconnected-(U2-Pad2)*%
X94337500Y-69250000D03*
%TO.P,U2,3,PC14*%
%TO.N,unconnected-(U2-Pad3)*%
X94337500Y-69750000D03*
%TO.P,U2,4,PC15*%
%TO.N,unconnected-(U2-Pad4)*%
X94337500Y-70250000D03*
%TO.P,U2,5,PD0*%
%TO.N,/HSE_IN*%
X94337500Y-70750000D03*
%TO.P,U2,6,PD1*%
%TO.N,/HSE_OUT*%
X94337500Y-71250000D03*
%TO.P,U2,7,NRST*%
%TO.N,/NRST*%
X94337500Y-71750000D03*
%TO.P,U2,8,VSSA*%
%TO.N,GND*%
X94337500Y-72250000D03*
%TO.P,U2,9,VDDA*%
%TO.N,+3.3VA*%
X94337500Y-72750000D03*
%TO.P,U2,10,PA0*%
%TO.N,unconnected-(U2-Pad10)*%
X94337500Y-73250000D03*
%TO.P,U2,11,PA1*%
%TO.N,unconnected-(U2-Pad11)*%
X94337500Y-73750000D03*
%TO.P,U2,12,PA2*%
%TO.N,unconnected-(U2-Pad12)*%
X94337500Y-74250000D03*
D25*
%TO.P,U2,13,PA3*%
%TO.N,unconnected-(U2-Pad13)*%
X95750000Y-75662500D03*
%TO.P,U2,14,PA4*%
%TO.N,unconnected-(U2-Pad14)*%
X96250000Y-75662500D03*
%TO.P,U2,15,PA5*%
%TO.N,unconnected-(U2-Pad15)*%
X96750000Y-75662500D03*
%TO.P,U2,16,PA6*%
%TO.N,unconnected-(U2-Pad16)*%
X97250000Y-75662500D03*
%TO.P,U2,17,PA7*%
%TO.N,unconnected-(U2-Pad17)*%
X97750000Y-75662500D03*
%TO.P,U2,18,PB0*%
%TO.N,unconnected-(U2-Pad18)*%
X98250000Y-75662500D03*
%TO.P,U2,19,PB1*%
%TO.N,unconnected-(U2-Pad19)*%
X98750000Y-75662500D03*
%TO.P,U2,20,PB2*%
%TO.N,unconnected-(U2-Pad20)*%
X99250000Y-75662500D03*
%TO.P,U2,21,PB10*%
%TO.N,/I2C2_SCL*%
X99750000Y-75662500D03*
%TO.P,U2,22,PB11*%
%TO.N,/I2C2_SDA*%
X100250000Y-75662500D03*
%TO.P,U2,23,VSS*%
%TO.N,GND*%
X100750000Y-75662500D03*
%TO.P,U2,24,VDD*%
%TO.N,+3.3V*%
X101250000Y-75662500D03*
D24*
%TO.P,U2,25,PB12*%
%TO.N,unconnected-(U2-Pad25)*%
X102662500Y-74250000D03*
%TO.P,U2,26,PB13*%
%TO.N,unconnected-(U2-Pad26)*%
X102662500Y-73750000D03*
%TO.P,U2,27,PB14*%
%TO.N,unconnected-(U2-Pad27)*%
X102662500Y-73250000D03*
%TO.P,U2,28,PB15*%
%TO.N,unconnected-(U2-Pad28)*%
X102662500Y-72750000D03*
%TO.P,U2,29,PA8*%
%TO.N,unconnected-(U2-Pad29)*%
X102662500Y-72250000D03*
%TO.P,U2,30,PA9*%
%TO.N,unconnected-(U2-Pad30)*%
X102662500Y-71750000D03*
%TO.P,U2,31,PA10*%
%TO.N,unconnected-(U2-Pad31)*%
X102662500Y-71250000D03*
%TO.P,U2,32,PA11*%
%TO.N,/USB_D-*%
X102662500Y-70750000D03*
%TO.P,U2,33,PA12*%
%TO.N,/USB_D+*%
X102662500Y-70250000D03*
%TO.P,U2,34,PA13*%
%TO.N,/SWDIO*%
X102662500Y-69750000D03*
%TO.P,U2,35,VSS*%
%TO.N,GND*%
X102662500Y-69250000D03*
%TO.P,U2,36,VDD*%
%TO.N,+3.3V*%
X102662500Y-68750000D03*
D25*
%TO.P,U2,37,PA14*%
%TO.N,/SWDCLK*%
X101250000Y-67337500D03*
%TO.P,U2,38,PA15*%
%TO.N,unconnected-(U2-Pad38)*%
X100750000Y-67337500D03*
%TO.P,U2,39,PB3*%
%TO.N,unconnected-(U2-Pad39)*%
X100250000Y-67337500D03*
%TO.P,U2,40,PB4*%
%TO.N,unconnected-(U2-Pad40)*%
X99750000Y-67337500D03*
%TO.P,U2,41,PB5*%
%TO.N,unconnected-(U2-Pad41)*%
X99250000Y-67337500D03*
%TO.P,U2,42,PB6*%
%TO.N,/USART_TX1*%
X98750000Y-67337500D03*
%TO.P,U2,43,PB7*%
%TO.N,/USART_RX1*%
X98250000Y-67337500D03*
%TO.P,U2,44,BOOT0*%
%TO.N,/BOOT0*%
X97750000Y-67337500D03*
%TO.P,U2,45,PB8*%
%TO.N,unconnected-(U2-Pad45)*%
X97250000Y-67337500D03*
%TO.P,U2,46,PB9*%
%TO.N,unconnected-(U2-Pad46)*%
X96750000Y-67337500D03*
%TO.P,U2,47,VSS*%
%TO.N,GND*%
X96250000Y-67337500D03*
%TO.P,U2,48,VDD*%
%TO.N,+3.3V*%
X95750000Y-67337500D03*
%TD*%
D12*
%TO.P,C13,1*%
%TO.N,+3.3V*%
X92260000Y-77250000D03*
%TO.P,C13,2*%
%TO.N,GND*%
X91300000Y-77250000D03*
%TD*%
D26*
%TO.P,C6,1*%
%TO.N,/NRST*%
X95520000Y-77500000D03*
%TO.P,C6,2*%
%TO.N,GND*%
X96480000Y-77500000D03*
%TD*%
D27*
%TO.P,J4,1,VBUS*%
%TO.N,VBUS*%
X111150000Y-71400000D03*
%TO.P,J4,2,D-*%
%TO.N,/USB_D-*%
X111150000Y-70750000D03*
%TO.P,J4,3,D+*%
%TO.N,/USB_D+*%
X111150000Y-70100000D03*
%TO.P,J4,4,ID*%
%TO.N,unconnected-(J4-Pad4)*%
X111150000Y-69450000D03*
%TO.P,J4,5,GND*%
%TO.N,GND*%
X111150000Y-68800000D03*
D28*
%TO.P,J4,6,Shield*%
X111200000Y-73825000D03*
X111200000Y-66375000D03*
D29*
X115000000Y-73975000D03*
X115000000Y-66225000D03*
%TD*%
D17*
%TO.P,C5,1*%
%TO.N,/HSE_IN*%
X91200000Y-69660000D03*
%TO.P,C5,2*%
%TO.N,GND*%
X91200000Y-68700000D03*
%TD*%
D30*
%TO.P,FB1,1*%
%TO.N,+3.3V*%
X93750000Y-77287500D03*
%TO.P,FB1,2*%
%TO.N,+3.3VA*%
X93750000Y-75712500D03*
%TD*%
D31*
%TO.P,U1,1,GND*%
%TO.N,GND*%
X108980000Y-77216000D03*
D32*
%TO.P,U1,2,VO*%
%TO.N,+3.3V*%
X106680000Y-83516000D03*
D31*
X106680000Y-77216000D03*
%TO.P,U1,3,VI*%
%TO.N,VBUS*%
X104380000Y-77216000D03*
%TD*%
D26*
%TO.P,C10,1*%
%TO.N,+3.3V*%
X95520000Y-65500000D03*
%TO.P,C10,2*%
%TO.N,GND*%
X96480000Y-65500000D03*
%TD*%
D33*
%TO.P,C2,1*%
%TO.N,+3.3V*%
X112268000Y-79436000D03*
%TO.P,C2,2*%
%TO.N,GND*%
X112268000Y-77536000D03*
%TD*%
D17*
%TO.P,C9,1*%
%TO.N,/HSE_OUT*%
X91200000Y-71680000D03*
%TO.P,C9,2*%
%TO.N,GND*%
X91200000Y-70720000D03*
%TD*%
D34*
%TO.P,R2,1*%
%TO.N,+3.3V*%
X96700000Y-81000000D03*
%TO.P,R2,2*%
%TO.N,/I2C2_SCL*%
X95680000Y-81000000D03*
%TD*%
D11*
%TO.P,R3,1*%
%TO.N,+3.3V*%
X97690000Y-81000000D03*
%TO.P,R3,2*%
%TO.N,/I2C2_SDA*%
X98710000Y-81000000D03*
%TD*%
D35*
%TO.N,GND*%
X108458000Y-78994000D03*
X91190000Y-67700000D03*
X93750000Y-67500000D03*
X112776000Y-76200000D03*
X96250000Y-68818000D03*
X91250000Y-78230000D03*
X87630000Y-72898000D03*
X83820000Y-66294000D03*
X92227183Y-70550781D03*
X108204000Y-74676000D03*
X109950498Y-68900000D03*
X108204000Y-73660000D03*
X91340000Y-76290000D03*
X116750000Y-77010000D03*
X100750000Y-74500000D03*
X109474000Y-78994000D03*
X89662000Y-67310000D03*
X105500000Y-69500000D03*
X95740000Y-72220000D03*
X97490000Y-77510000D03*
%TO.N,+3.3V*%
X94230500Y-82042000D03*
X99350500Y-78994000D03*
X100838000Y-78994000D03*
X95696240Y-81973004D03*
%TD*%
D36*
%TO.N,GND*%
X96480000Y-65500000D02*
X96480000Y-65270000D01*
X96480000Y-66268959D02*
X96480000Y-65500000D01*
X102662500Y-69250000D02*
X103501041Y-69250000D01*
D37*
X87750000Y-72778000D02*
X87630000Y-72898000D01*
X83820000Y-66294000D02*
X84830000Y-65284000D01*
D36*
X94337500Y-72250000D02*
X93498959Y-72250000D01*
D37*
X109950498Y-68874502D02*
X110050000Y-68775000D01*
X109950498Y-68900000D02*
X109950498Y-68874502D01*
D36*
X91300000Y-78180000D02*
X91250000Y-78230000D01*
D37*
X84830000Y-65284000D02*
X84830000Y-64450000D01*
D36*
X96250000Y-67337500D02*
X96250000Y-68818000D01*
X96480000Y-77500000D02*
X96490000Y-77510000D01*
D37*
X92230000Y-70553598D02*
X92227183Y-70550781D01*
D36*
X100750000Y-77450000D02*
X100800000Y-77500000D01*
D37*
X92500000Y-67790000D02*
X93460000Y-67790000D01*
D36*
X96490000Y-77510000D02*
X97490000Y-77510000D01*
X96250000Y-67337500D02*
X96250000Y-66498959D01*
X103501041Y-69250000D02*
X103751041Y-69500000D01*
D37*
X91200000Y-70720000D02*
X91270000Y-70650000D01*
D36*
X94337500Y-72250000D02*
X95710000Y-72250000D01*
X100750000Y-75662500D02*
X100750000Y-77450000D01*
X95710000Y-72250000D02*
X95740000Y-72220000D01*
D37*
X91200000Y-67710000D02*
X91190000Y-67700000D01*
X89450000Y-69000000D02*
X89450000Y-67522000D01*
X115600000Y-77010000D02*
X116750000Y-77010000D01*
D36*
X93248959Y-72000000D02*
X92500000Y-72000000D01*
D37*
X105500000Y-69500000D02*
X104500000Y-69500000D01*
D36*
X96775000Y-64975000D02*
X96775000Y-64000000D01*
X96250000Y-66498959D02*
X96480000Y-66268959D01*
D37*
X93460000Y-67790000D02*
X93750000Y-67500000D01*
D36*
X91300000Y-77250000D02*
X91300000Y-78180000D01*
D37*
X91340000Y-75350000D02*
X91340000Y-76290000D01*
D36*
X93498959Y-72250000D02*
X93248959Y-72000000D01*
D37*
X87750000Y-71200000D02*
X87750000Y-72778000D01*
X89450000Y-67522000D02*
X89662000Y-67310000D01*
D36*
X103751041Y-69500000D02*
X104500000Y-69500000D01*
D37*
X92230000Y-70650000D02*
X92230000Y-70553598D01*
X91270000Y-70650000D02*
X92230000Y-70650000D01*
X91200000Y-68700000D02*
X91200000Y-67710000D01*
D36*
X96480000Y-65270000D02*
X96775000Y-64975000D01*
D37*
X110050000Y-68775000D02*
X111150000Y-68775000D01*
D36*
X100750000Y-75662500D02*
X100750000Y-74500000D01*
D37*
%TO.N,+3.3V*%
X113538000Y-75438000D02*
X113538000Y-64770000D01*
D36*
X101250000Y-76450000D02*
X101760000Y-76960000D01*
D37*
X96520000Y-81788000D02*
X96334996Y-81973004D01*
D36*
X103500000Y-68750000D02*
X102662500Y-68750000D01*
D37*
X113538000Y-64052000D02*
X113538000Y-62438000D01*
D36*
X101250000Y-75662500D02*
X101250000Y-76450000D01*
D37*
X92260000Y-77250000D02*
X92260000Y-81978000D01*
X96334996Y-81973004D02*
X95696240Y-81973004D01*
X112776000Y-81026000D02*
X113030000Y-81280000D01*
D36*
X95520000Y-65500000D02*
X95520000Y-65270000D01*
D37*
X113538000Y-64770000D02*
X113538000Y-64052000D01*
D36*
X95750000Y-67337500D02*
X95750000Y-66500000D01*
X95500000Y-65520000D02*
X95520000Y-65500000D01*
D37*
X86360000Y-79502000D02*
X86360000Y-70480000D01*
X93972000Y-64000000D02*
X95225000Y-64000000D01*
X99350500Y-78994000D02*
X98552000Y-78994000D01*
X96700000Y-81127315D02*
X96520000Y-81307315D01*
D36*
X95750000Y-66500000D02*
X95500000Y-66250000D01*
D37*
X86360000Y-70480000D02*
X86360000Y-67310000D01*
X112776000Y-81026000D02*
X111252000Y-82550000D01*
X97690000Y-79856000D02*
X97690000Y-81000000D01*
X92260000Y-81978000D02*
X92390000Y-82108000D01*
D36*
X101760000Y-76960000D02*
X101760000Y-77500000D01*
D37*
X86360000Y-70480000D02*
X84830000Y-68950000D01*
X102616000Y-78994000D02*
X100838000Y-78994000D01*
D36*
X95520000Y-65270000D02*
X95225000Y-64975000D01*
D37*
X93712500Y-77250000D02*
X93750000Y-77287500D01*
X96700000Y-81000000D02*
X96700000Y-81127315D01*
X94550000Y-68264000D02*
X94337500Y-68476500D01*
X111252000Y-82550000D02*
X111252000Y-85344000D01*
X107890000Y-64300000D02*
X106875000Y-65315000D01*
X113538000Y-64052000D02*
X113290000Y-64300000D01*
X92260000Y-77250000D02*
X93712500Y-77250000D01*
X102616000Y-85344000D02*
X102616000Y-78994000D01*
X113928500Y-79436000D02*
X113928500Y-79873500D01*
X99704000Y-56896000D02*
X107996000Y-56896000D01*
X113928500Y-79873500D02*
X112776000Y-81026000D01*
X98552000Y-78994000D02*
X97690000Y-79856000D01*
X92390000Y-82108000D02*
X92390000Y-84200000D01*
X86360000Y-67310000D02*
X89670000Y-64000000D01*
D36*
X95225000Y-64975000D02*
X95225000Y-64000000D01*
D37*
X113538000Y-62438000D02*
X109800000Y-58700000D01*
X113928500Y-79436000D02*
X114610000Y-80117500D01*
X92390000Y-82108000D02*
X88966000Y-82108000D01*
D36*
X103710000Y-68540000D02*
X103500000Y-68750000D01*
D37*
X96520000Y-81307315D02*
X96520000Y-81788000D01*
X92456000Y-82042000D02*
X92390000Y-82108000D01*
X102616000Y-78994000D02*
X102616000Y-78356000D01*
X107996000Y-56896000D02*
X109800000Y-58700000D01*
X113030000Y-81280000D02*
X116840000Y-81280000D01*
X88966000Y-82108000D02*
X86360000Y-79502000D01*
X97900000Y-58700000D02*
X99704000Y-56896000D01*
X106875000Y-69240000D02*
X106175000Y-68540000D01*
X113290000Y-64300000D02*
X107890000Y-64300000D01*
X117550000Y-80570000D02*
X117550000Y-76402000D01*
X106875000Y-65315000D02*
X106875000Y-69240000D01*
X93972000Y-64000000D02*
X94550000Y-64578000D01*
X94550000Y-64578000D02*
X94550000Y-68264000D01*
D36*
X104500000Y-68540000D02*
X103710000Y-68540000D01*
X95500000Y-66250000D02*
X95500000Y-65520000D01*
D37*
X117550000Y-76402000D02*
X116586000Y-75438000D01*
X111252000Y-85344000D02*
X102616000Y-85344000D01*
X94337500Y-68476500D02*
X94337500Y-68650000D01*
D36*
X92500000Y-68750000D02*
X94337500Y-68750000D01*
D37*
X112268000Y-79436000D02*
X113928500Y-79436000D01*
X89670000Y-64000000D02*
X93972000Y-64000000D01*
X102616000Y-78356000D02*
X101760000Y-77500000D01*
X94230500Y-82042000D02*
X92456000Y-82042000D01*
X116586000Y-75438000D02*
X113538000Y-75438000D01*
X97690000Y-81000000D02*
X96700000Y-81000000D01*
X106175000Y-68540000D02*
X104500000Y-68540000D01*
X116840000Y-81280000D02*
X117550000Y-80570000D01*
D36*
%TO.N,/HSE_IN*%
X92500000Y-69750000D02*
X92410000Y-69660000D01*
X92410000Y-69660000D02*
X91200000Y-69660000D01*
X91200000Y-69660000D02*
X90810000Y-70050000D01*
X88500000Y-70050000D02*
X87750000Y-69300000D01*
X90810000Y-70050000D02*
X88500000Y-70050000D01*
X94337500Y-70750000D02*
X93498959Y-70750000D01*
X93498959Y-70750000D02*
X92500000Y-69751041D01*
X87750000Y-69300000D02*
X87750000Y-69000000D01*
X92500000Y-69751041D02*
X92500000Y-69750000D01*
%TO.N,/NRST*%
X96160000Y-71520000D02*
X96440000Y-71800000D01*
X94840000Y-75086041D02*
X94840000Y-76820000D01*
X94840000Y-76820000D02*
X95520000Y-77500000D01*
X94337500Y-71750000D02*
X95220050Y-71750000D01*
X96440000Y-71800000D02*
X96440000Y-73633959D01*
X95220050Y-71750000D02*
X95450050Y-71520000D01*
X95450050Y-71520000D02*
X96160000Y-71520000D01*
X94987918Y-75086041D02*
X94840000Y-75086041D01*
X96440000Y-73633959D02*
X94987918Y-75086041D01*
%TO.N,/HSE_OUT*%
X94337500Y-71250000D02*
X92247035Y-71250000D01*
X91200000Y-71680000D02*
X89930000Y-71680000D01*
X91817035Y-71680000D02*
X91200000Y-71680000D01*
X92247035Y-71250000D02*
X91817035Y-71680000D01*
X89930000Y-71680000D02*
X89450000Y-71200000D01*
D37*
%TO.N,+3.3VA*%
X92300000Y-75350000D02*
X92300000Y-73160000D01*
D36*
X93498959Y-72750000D02*
X93250000Y-72998959D01*
D37*
X93750000Y-75712500D02*
X92662500Y-75712500D01*
D36*
X94337500Y-72750000D02*
X93498959Y-72750000D01*
X93250000Y-72998959D02*
X93250000Y-73000000D01*
D37*
X92662500Y-75712500D02*
X92300000Y-75350000D01*
D36*
X93250000Y-73000000D02*
X92540000Y-73000000D01*
D37*
X92300000Y-73160000D02*
X92500000Y-72960000D01*
D36*
X92540000Y-73000000D02*
X92500000Y-72960000D01*
D37*
%TO.N,/PWR_LED_K*%
X114580000Y-77010000D02*
X114580000Y-78512500D01*
X114580000Y-78512500D02*
X114610000Y-78542500D01*
D36*
%TO.N,/USART_TX1*%
X99925000Y-65425000D02*
X99925000Y-61975000D01*
X95360000Y-60360000D02*
X95360000Y-58700000D01*
X98750000Y-67337500D02*
X98750000Y-66498959D01*
X99925000Y-61975000D02*
X98425000Y-60475000D01*
X98750000Y-66498959D02*
X99823959Y-65425000D01*
X99823959Y-65425000D02*
X99925000Y-65425000D01*
X98425000Y-60475000D02*
X95475000Y-60475000D01*
X95475000Y-60475000D02*
X95360000Y-60360000D01*
%TO.N,/USART_RX1*%
X98875000Y-64950000D02*
X98875000Y-62400000D01*
X97675000Y-61200000D02*
X93175000Y-61200000D01*
X98875000Y-62400000D02*
X97675000Y-61200000D01*
X93175000Y-61200000D02*
X92820000Y-60845000D01*
X98250000Y-65575000D02*
X98875000Y-64950000D01*
X98250000Y-67337500D02*
X98250000Y-65575000D01*
X92820000Y-60845000D02*
X92820000Y-58700000D01*
%TO.N,/I2C2_SCL*%
X95680000Y-80571041D02*
X95680000Y-81000000D01*
X94930000Y-81750000D02*
X94930000Y-84200000D01*
X95680000Y-81000000D02*
X94930000Y-81750000D01*
X99750000Y-76501041D02*
X95680000Y-80571041D01*
X99750000Y-75662500D02*
X99750000Y-76501041D01*
%TO.N,/I2C2_SDA*%
X100250000Y-77047035D02*
X100050000Y-77247035D01*
X100050000Y-79660000D02*
X98710000Y-81000000D01*
X100050000Y-77247035D02*
X100050000Y-79660000D01*
X100250000Y-75662500D02*
X100250000Y-77047035D01*
X98710000Y-81000000D02*
X97470000Y-82240000D01*
X97470000Y-82240000D02*
X97470000Y-84200000D01*
%TO.N,/SWDIO*%
X101823959Y-69750000D02*
X101575000Y-69501041D01*
X101575000Y-69501041D02*
X101575000Y-68375000D01*
X102662500Y-69750000D02*
X101823959Y-69750000D01*
X107260000Y-62690000D02*
X107260000Y-58700000D01*
X101575000Y-68375000D02*
X107260000Y-62690000D01*
%TO.N,/SWDCLK*%
X101250000Y-67337500D02*
X101250000Y-64350000D01*
X104720000Y-60870000D02*
X104720000Y-58700000D01*
X101250000Y-64350000D02*
X104725000Y-60875000D01*
X104725000Y-60875000D02*
X104720000Y-60870000D01*
D38*
%TO.N,/USB_D-*%
X106429817Y-70750000D02*
X106509817Y-70830000D01*
X107320183Y-70750000D02*
X111150000Y-70750000D01*
X102662500Y-70750000D02*
X106429817Y-70750000D01*
X107240183Y-70830000D02*
X107320183Y-70750000D01*
X106509817Y-70830000D02*
X107240183Y-70830000D01*
%TO.N,/USB_D+*%
X102662500Y-70250000D02*
X102712499Y-70299999D01*
X110200000Y-70299999D02*
X110200000Y-70225000D01*
X111025000Y-70225000D02*
X111150000Y-70100000D01*
X102712499Y-70299999D02*
X110200000Y-70299999D01*
X110200000Y-70225000D02*
X111025000Y-70225000D01*
D36*
%TO.N,/SW_BOOT0*%
X85594000Y-65536000D02*
X84830000Y-66300000D01*
X84830000Y-66300000D02*
X84830000Y-67450000D01*
X86614000Y-65536000D02*
X85594000Y-65536000D01*
%TO.N,/BOOT0*%
X97050000Y-62000000D02*
X88800000Y-62000000D01*
X87050000Y-64080000D02*
X86614000Y-64516000D01*
X88800000Y-62000000D02*
X87050000Y-63750000D01*
X97750000Y-62700000D02*
X97050000Y-62000000D01*
X97750000Y-67337500D02*
X97750000Y-62700000D01*
X87050000Y-63750000D02*
X87050000Y-64080000D01*
%TD*%
%TA.AperFunction,Conductor*%
%TO.N,VBUS*%
G36*
X110266151Y-71170185D02*
G01*
X110286716Y-71186742D01*
X110319181Y-71219151D01*
X110319187Y-71219155D01*
X110327287Y-71227241D01*
X110337758Y-71231870D01*
X110337759Y-71231871D01*
X110421147Y-71268737D01*
X110421149Y-71268738D01*
X110429673Y-71272506D01*
X110455354Y-71275500D01*
X111766000Y-71275500D01*
X111833039Y-71295185D01*
X111878794Y-71347989D01*
X111890000Y-71399500D01*
X111890000Y-71576000D01*
X111870315Y-71643039D01*
X111817511Y-71688794D01*
X111766000Y-71700000D01*
X109490000Y-71700000D01*
X107901837Y-72295561D01*
X107892152Y-72299193D01*
X107887825Y-72300725D01*
X105506913Y-73094362D01*
X105506912Y-73094363D01*
X105490000Y-73100000D01*
X105491596Y-75224000D01*
X105491628Y-75266699D01*
X105477873Y-75323553D01*
X105190000Y-75882669D01*
X105146345Y-77296882D01*
X105146946Y-77301668D01*
X105189035Y-77636981D01*
X105190000Y-77652425D01*
X105190000Y-78576000D01*
X105170315Y-78643039D01*
X105117511Y-78688794D01*
X105066000Y-78700000D01*
X103290500Y-78700000D01*
X103223461Y-78680315D01*
X103177706Y-78627511D01*
X103166500Y-78576000D01*
X103166500Y-78370957D01*
X103166609Y-78365764D01*
X103168856Y-78312154D01*
X103168856Y-78312153D01*
X103169210Y-78303706D01*
X103167279Y-78295475D01*
X103167279Y-78295471D01*
X103159253Y-78261253D01*
X103157123Y-78249764D01*
X103152353Y-78214940D01*
X103152353Y-78214939D01*
X103151206Y-78206568D01*
X103145166Y-78192610D01*
X103138242Y-78171675D01*
X103136699Y-78165097D01*
X103134768Y-78156864D01*
X103113761Y-78118652D01*
X103108624Y-78108167D01*
X103100199Y-78088699D01*
X103090000Y-78039450D01*
X103090000Y-75224000D01*
X103109685Y-75156961D01*
X103162489Y-75111206D01*
X103214000Y-75100000D01*
X104090000Y-75100000D01*
X104090000Y-72970207D01*
X104109685Y-72903168D01*
X104150203Y-72863878D01*
X105073568Y-72309859D01*
X105108639Y-72295562D01*
X106988391Y-71848002D01*
X109285861Y-71300986D01*
X109294196Y-71299301D01*
X109969548Y-71186742D01*
X110176879Y-71152187D01*
X110197263Y-71150500D01*
X110199112Y-71150500D01*
X110266151Y-71170185D01*
G37*
%TD.AperFunction*%
%TD*%
%TA.AperFunction,Conductor*%
%TO.N,GND*%
G36*
X108633039Y-73219685D02*
G01*
X108678794Y-73272489D01*
X108690000Y-73324000D01*
X108690000Y-75700000D01*
X112979961Y-75700000D01*
X113047000Y-75719685D01*
X113079730Y-75751252D01*
X113081707Y-75755132D01*
X113087428Y-75761353D01*
X113118413Y-75795049D01*
X113123503Y-75800947D01*
X113152290Y-75836497D01*
X113152295Y-75836502D01*
X113157614Y-75843070D01*
X113164506Y-75847967D01*
X113170667Y-75853753D01*
X113170567Y-75853859D01*
X113171469Y-75854654D01*
X113171561Y-75854543D01*
X113178079Y-75859935D01*
X113183799Y-75866156D01*
X113229901Y-75894740D01*
X113236369Y-75899038D01*
X113237845Y-75900087D01*
X113281080Y-75954973D01*
X113290000Y-76001153D01*
X113290000Y-78176000D01*
X113270315Y-78243039D01*
X113217511Y-78288794D01*
X113166000Y-78300000D01*
X110490000Y-78300000D01*
X110490000Y-79566095D01*
X110470315Y-79633134D01*
X110417511Y-79678889D01*
X110356490Y-79689730D01*
X108004490Y-79508807D01*
X107939157Y-79484038D01*
X107897587Y-79427881D01*
X107890000Y-79385172D01*
X107890000Y-75300000D01*
X106314000Y-75300000D01*
X106246961Y-75280315D01*
X106201206Y-75227511D01*
X106190000Y-75176000D01*
X106190000Y-73324000D01*
X106209685Y-73256961D01*
X106262489Y-73211206D01*
X106314000Y-73200000D01*
X108566000Y-73200000D01*
X108633039Y-73219685D01*
G37*
%TD.AperFunction*%
%TD*%
%TA.AperFunction,Conductor*%
%TO.N,+3.3V*%
G36*
X107416182Y-76013091D02*
G01*
X107521454Y-76065727D01*
X107572613Y-76113314D01*
X107590000Y-76176636D01*
X107590000Y-78078663D01*
X107582867Y-78120112D01*
X107341734Y-78800000D01*
X107334231Y-78821154D01*
X107390000Y-80000000D01*
X107394080Y-80009886D01*
X107843960Y-81100000D01*
X107990239Y-81454453D01*
X110407997Y-80502003D01*
X111273651Y-80160988D01*
X111273652Y-80160987D01*
X111290239Y-80154453D01*
X111290203Y-79931746D01*
X111290067Y-79108108D01*
X111290020Y-78824019D01*
X111309694Y-78756978D01*
X111362490Y-78711214D01*
X111414020Y-78700000D01*
X113138638Y-78700000D01*
X113205677Y-78719685D01*
X113226319Y-78736319D01*
X113248932Y-78758932D01*
X113282417Y-78820255D01*
X113284742Y-78857838D01*
X113194064Y-79855293D01*
X113168392Y-79920273D01*
X113158263Y-79931737D01*
X112812721Y-80277279D01*
X112759105Y-80308827D01*
X112592978Y-80356292D01*
X112090000Y-80500000D01*
X112085661Y-80502003D01*
X112085660Y-80502003D01*
X110804002Y-81093537D01*
X110804000Y-81093538D01*
X110790000Y-81100000D01*
X110190000Y-81900000D01*
X110189186Y-81918724D01*
X110092834Y-84134815D01*
X110070256Y-84200936D01*
X110034672Y-84234580D01*
X109318974Y-84681891D01*
X109255839Y-84700712D01*
X106838491Y-84751073D01*
X104593811Y-84797837D01*
X104526376Y-84779553D01*
X104479531Y-84727714D01*
X104469636Y-84698182D01*
X104392408Y-84312040D01*
X104390000Y-84287722D01*
X104390000Y-82040322D01*
X104409685Y-81973283D01*
X104413717Y-81967389D01*
X105183457Y-80908997D01*
X105183458Y-80908996D01*
X105190000Y-80900000D01*
X105690000Y-79100000D01*
X105690000Y-76610263D01*
X105691687Y-76589877D01*
X105772731Y-76103614D01*
X105803169Y-76040723D01*
X105862777Y-76004272D01*
X105895044Y-76000000D01*
X107360728Y-76000000D01*
X107416182Y-76013091D01*
G37*
%TD.AperFunction*%
%TD*%
M02*
