%TF.GenerationSoftware,KiCad,Pcbnew,(6.0.7)*%
%TF.CreationDate,2022-08-14T12:50:59+03:00*%
%TF.ProjectId,STM32F103C8T6,53544d33-3246-4313-9033-433854362e6b,rev?*%
%TF.SameCoordinates,Original*%
%TF.FileFunction,Legend,Bot*%
%TF.FilePolarity,Positive*%
%FSLAX46Y46*%
G04 Gerber Fmt 4.6, Leading zero omitted, Abs format (unit mm)*
G04 Created by KiCad (PCBNEW (6.0.7)) date 2022-08-14 12:50:59*
%MOMM*%
%LPD*%
G01*
G04 APERTURE LIST*
%ADD10C,0.150000*%
G04 APERTURE END LIST*
D10*
X101440857Y-71275380D02*
X102012285Y-71275380D01*
X101726571Y-71275380D02*
X101726571Y-70275380D01*
X101821809Y-70418238D01*
X101917047Y-70513476D01*
X102012285Y-70561095D01*
X100583714Y-70608714D02*
X100583714Y-71275380D01*
X100821809Y-70227761D02*
X101059904Y-70942047D01*
X100440857Y-70942047D01*
X99345619Y-70227761D02*
X100202761Y-71513476D01*
X98821809Y-70275380D02*
X98726571Y-70275380D01*
X98631333Y-70323000D01*
X98583714Y-70370619D01*
X98536095Y-70465857D01*
X98488476Y-70656333D01*
X98488476Y-70894428D01*
X98536095Y-71084904D01*
X98583714Y-71180142D01*
X98631333Y-71227761D01*
X98726571Y-71275380D01*
X98821809Y-71275380D01*
X98917047Y-71227761D01*
X98964666Y-71180142D01*
X99012285Y-71084904D01*
X99059904Y-70894428D01*
X99059904Y-70656333D01*
X99012285Y-70465857D01*
X98964666Y-70370619D01*
X98917047Y-70323000D01*
X98821809Y-70275380D01*
X97917047Y-70703952D02*
X98012285Y-70656333D01*
X98059904Y-70608714D01*
X98107523Y-70513476D01*
X98107523Y-70465857D01*
X98059904Y-70370619D01*
X98012285Y-70323000D01*
X97917047Y-70275380D01*
X97726571Y-70275380D01*
X97631333Y-70323000D01*
X97583714Y-70370619D01*
X97536095Y-70465857D01*
X97536095Y-70513476D01*
X97583714Y-70608714D01*
X97631333Y-70656333D01*
X97726571Y-70703952D01*
X97917047Y-70703952D01*
X98012285Y-70751571D01*
X98059904Y-70799190D01*
X98107523Y-70894428D01*
X98107523Y-71084904D01*
X98059904Y-71180142D01*
X98012285Y-71227761D01*
X97917047Y-71275380D01*
X97726571Y-71275380D01*
X97631333Y-71227761D01*
X97583714Y-71180142D01*
X97536095Y-71084904D01*
X97536095Y-70894428D01*
X97583714Y-70799190D01*
X97631333Y-70751571D01*
X97726571Y-70703952D01*
X96393238Y-70227761D02*
X97250380Y-71513476D01*
X96107523Y-70370619D02*
X96059904Y-70323000D01*
X95964666Y-70275380D01*
X95726571Y-70275380D01*
X95631333Y-70323000D01*
X95583714Y-70370619D01*
X95536095Y-70465857D01*
X95536095Y-70561095D01*
X95583714Y-70703952D01*
X96155142Y-71275380D01*
X95536095Y-71275380D01*
X95155142Y-70370619D02*
X95107523Y-70323000D01*
X95012285Y-70275380D01*
X94774190Y-70275380D01*
X94678952Y-70323000D01*
X94631333Y-70370619D01*
X94583714Y-70465857D01*
X94583714Y-70561095D01*
X94631333Y-70703952D01*
X95202761Y-71275380D01*
X94583714Y-71275380D01*
X99726571Y-72218714D02*
X99488476Y-72885380D01*
X99250380Y-72218714D01*
X98345619Y-72885380D02*
X98917047Y-72885380D01*
X98631333Y-72885380D02*
X98631333Y-71885380D01*
X98726571Y-72028238D01*
X98821809Y-72123476D01*
X98917047Y-72171095D01*
X97917047Y-72790142D02*
X97869428Y-72837761D01*
X97917047Y-72885380D01*
X97964666Y-72837761D01*
X97917047Y-72790142D01*
X97917047Y-72885380D01*
X97250380Y-71885380D02*
X97155142Y-71885380D01*
X97059904Y-71933000D01*
X97012285Y-71980619D01*
X96964666Y-72075857D01*
X96917047Y-72266333D01*
X96917047Y-72504428D01*
X96964666Y-72694904D01*
X97012285Y-72790142D01*
X97059904Y-72837761D01*
X97155142Y-72885380D01*
X97250380Y-72885380D01*
X97345619Y-72837761D01*
X97393238Y-72790142D01*
X97440857Y-72694904D01*
X97488476Y-72504428D01*
X97488476Y-72266333D01*
X97440857Y-72075857D01*
X97393238Y-71980619D01*
X97345619Y-71933000D01*
X97250380Y-71885380D01*
M02*
