M48
; DRILL file {KiCad (6.0.7)} date Sun Aug 14 12:50:32 2022
; FORMAT={-:-/ absolute / metric / decimal}
; #@! TF.CreationDate,2022-08-14T12:50:32+03:00
; #@! TF.GenerationSoftware,Kicad,Pcbnew,(6.0.7)
; #@! TF.FileFunction,MixedPlating,1,2
FMAT,2
METRIC
; #@! TA.AperFunction,Plated,PTH,ViaDrill
T1C0.300
; #@! TA.AperFunction,Plated,PTH,ComponentDrill
T2C0.550
; #@! TA.AperFunction,Plated,PTH,ComponentDrill
T3C0.850
; #@! TA.AperFunction,Plated,PTH,ComponentDrill
T4C1.000
; #@! TA.AperFunction,NonPlated,NPTH,ComponentDrill
T5C0.800
; #@! TA.AperFunction,NonPlated,NPTH,ComponentDrill
T6C0.900
; #@! TA.AperFunction,NonPlated,NPTH,ComponentDrill
T7C2.200
%
G90
G05
T1
X83.82Y-66.294
X87.63Y-72.898
X89.662Y-67.31
X91.19Y-67.7
X91.25Y-78.23
X91.34Y-76.29
X92.227Y-70.551
X93.75Y-67.5
X94.23Y-82.042
X95.696Y-81.973
X95.74Y-72.22
X96.25Y-68.818
X97.49Y-77.51
X99.35Y-78.994
X100.75Y-74.5
X100.838Y-78.994
X105.5Y-69.5
X108.204Y-73.66
X108.204Y-74.676
X108.458Y-78.994
X109.474Y-78.994
X109.95Y-68.9
X112.776Y-76.2
X116.75Y-77.01
T4
X90.28Y-58.7
X92.39Y-84.2
X92.82Y-58.7
X94.93Y-84.2
X95.36Y-58.7
X97.47Y-84.2
X97.9Y-58.7
X100.01Y-84.2
X102.18Y-58.7
X104.72Y-58.7
X107.26Y-58.7
X109.8Y-58.7
T5
X112.25Y-67.6
X112.25Y-72.6
T6
X83.07Y-65.2
X83.07Y-68.2
T7
X84.0Y-59.0
X84.0Y-84.0
X115.0Y-59.0
X115.0Y-84.0
T2
G00X114.675Y-66.225
M15
G01X115.325Y-66.225
M16
G05
G00X114.675Y-73.975
M15
G01X115.325Y-73.975
M16
G05
T3
G00X110.925Y-66.375
M15
G01X111.475Y-66.375
M16
G05
G00X110.925Y-73.825
M15
G01X111.475Y-73.825
M16
G05
T0
M30
