%TF.GenerationSoftware,KiCad,Pcbnew,(6.0.7)*%
%TF.CreationDate,2022-08-14T12:50:59+03:00*%
%TF.ProjectId,STM32F103C8T6,53544d33-3246-4313-9033-433854362e6b,rev?*%
%TF.SameCoordinates,Original*%
%TF.FileFunction,Copper,L2,Bot*%
%TF.FilePolarity,Positive*%
%FSLAX46Y46*%
G04 Gerber Fmt 4.6, Leading zero omitted, Abs format (unit mm)*
G04 Created by KiCad (PCBNEW (6.0.7)) date 2022-08-14 12:50:59*
%MOMM*%
%LPD*%
G01*
G04 APERTURE LIST*
%TA.AperFunction,ComponentPad*%
%ADD10R,1.700000X1.700000*%
%TD*%
%TA.AperFunction,ComponentPad*%
%ADD11O,1.700000X1.700000*%
%TD*%
%TA.AperFunction,ComponentPad*%
%ADD12O,2.000000X1.450000*%
%TD*%
%TA.AperFunction,ComponentPad*%
%ADD13O,1.800000X1.150000*%
%TD*%
%TA.AperFunction,ViaPad*%
%ADD14C,0.700000*%
%TD*%
%TA.AperFunction,Conductor*%
%ADD15C,0.500000*%
%TD*%
G04 APERTURE END LIST*
D10*
%TO.P,J1,1,Pin_1*%
%TO.N,+3.3V*%
X97900000Y-58700000D03*
D11*
%TO.P,J1,2,Pin_2*%
%TO.N,/USART_TX1*%
X95360000Y-58700000D03*
%TO.P,J1,3,Pin_3*%
%TO.N,/USART_RX1*%
X92820000Y-58700000D03*
%TO.P,J1,4,Pin_4*%
%TO.N,GND*%
X90280000Y-58700000D03*
%TD*%
D10*
%TO.P,J2,1,Pin_1*%
%TO.N,+3.3V*%
X92390000Y-84200000D03*
D11*
%TO.P,J2,2,Pin_2*%
%TO.N,/I2C2_SCL*%
X94930000Y-84200000D03*
%TO.P,J2,3,Pin_3*%
%TO.N,/I2C2_SDA*%
X97470000Y-84200000D03*
%TO.P,J2,4,Pin_4*%
%TO.N,GND*%
X100010000Y-84200000D03*
%TD*%
D10*
%TO.P,J3,1,Pin_1*%
%TO.N,+3.3V*%
X109800000Y-58700000D03*
D11*
%TO.P,J3,2,Pin_2*%
%TO.N,/SWDIO*%
X107260000Y-58700000D03*
%TO.P,J3,3,Pin_3*%
%TO.N,/SWDCLK*%
X104720000Y-58700000D03*
%TO.P,J3,4,Pin_4*%
%TO.N,GND*%
X102180000Y-58700000D03*
%TD*%
D12*
%TO.P,J4,6,Shield*%
%TO.N,GND*%
X111200000Y-73825000D03*
X111200000Y-66375000D03*
D13*
X115000000Y-73975000D03*
X115000000Y-66225000D03*
%TD*%
D14*
%TO.N,GND*%
X108458000Y-78994000D03*
X91190000Y-67700000D03*
X93750000Y-67500000D03*
X112776000Y-76200000D03*
X96250000Y-68818000D03*
X91250000Y-78230000D03*
X87630000Y-72898000D03*
X83820000Y-66294000D03*
X92227183Y-70550781D03*
X108204000Y-74676000D03*
X109950498Y-68900000D03*
X108204000Y-73660000D03*
X91340000Y-76290000D03*
X116750000Y-77010000D03*
X100750000Y-74500000D03*
X109474000Y-78994000D03*
X89662000Y-67310000D03*
X105500000Y-69500000D03*
X95740000Y-72220000D03*
X97490000Y-77510000D03*
%TO.N,+3.3V*%
X94230500Y-82042000D03*
X99350500Y-78994000D03*
X100838000Y-78994000D03*
X95696240Y-81973004D03*
%TD*%
D15*
%TO.N,+3.3V*%
X100838000Y-78994000D02*
X99350500Y-78994000D01*
X95696240Y-81973004D02*
X94299496Y-81973004D01*
X94299496Y-81973004D02*
X94230500Y-82042000D01*
%TD*%
%TA.AperFunction,Conductor*%
%TO.N,GND*%
G36*
X114970018Y-56510000D02*
G01*
X114984851Y-56512310D01*
X114984855Y-56512310D01*
X114993724Y-56513691D01*
X115010923Y-56511442D01*
X115034863Y-56510609D01*
X115292710Y-56526206D01*
X115307814Y-56528040D01*
X115379786Y-56541229D01*
X115588760Y-56579525D01*
X115603526Y-56583164D01*
X115876231Y-56668142D01*
X115890445Y-56673534D01*
X116108223Y-56771547D01*
X116150906Y-56790757D01*
X116164379Y-56797828D01*
X116408813Y-56945595D01*
X116421334Y-56954238D01*
X116646171Y-57130385D01*
X116657560Y-57140475D01*
X116859525Y-57342440D01*
X116869614Y-57353828D01*
X116884770Y-57373173D01*
X117045762Y-57578666D01*
X117054405Y-57591187D01*
X117202172Y-57835621D01*
X117209242Y-57849092D01*
X117326466Y-58109555D01*
X117331858Y-58123769D01*
X117378071Y-58272072D01*
X117416836Y-58396473D01*
X117420475Y-58411240D01*
X117437881Y-58506221D01*
X117471960Y-58692186D01*
X117473794Y-58707290D01*
X117488953Y-58957904D01*
X117487692Y-58984716D01*
X117487690Y-58984852D01*
X117486309Y-58993724D01*
X117487473Y-59002626D01*
X117487473Y-59002628D01*
X117490436Y-59025283D01*
X117491500Y-59041621D01*
X117491500Y-83950633D01*
X117490000Y-83970018D01*
X117487690Y-83984851D01*
X117487690Y-83984855D01*
X117486309Y-83993724D01*
X117488558Y-84010919D01*
X117489391Y-84034863D01*
X117473794Y-84292710D01*
X117471960Y-84307814D01*
X117436162Y-84503164D01*
X117420477Y-84588754D01*
X117416836Y-84603526D01*
X117332342Y-84874678D01*
X117331859Y-84876227D01*
X117326466Y-84890445D01*
X117212303Y-85144106D01*
X117209243Y-85150906D01*
X117202172Y-85164379D01*
X117054405Y-85408813D01*
X117045762Y-85421334D01*
X116869615Y-85646171D01*
X116859525Y-85657560D01*
X116657560Y-85859525D01*
X116646171Y-85869615D01*
X116421334Y-86045762D01*
X116408813Y-86054405D01*
X116164379Y-86202172D01*
X116150908Y-86209242D01*
X115890445Y-86326466D01*
X115876231Y-86331858D01*
X115603527Y-86416836D01*
X115588760Y-86420475D01*
X115379786Y-86458771D01*
X115307814Y-86471960D01*
X115292710Y-86473794D01*
X115042096Y-86488953D01*
X115015284Y-86487692D01*
X115015148Y-86487690D01*
X115006276Y-86486309D01*
X114997374Y-86487473D01*
X114997372Y-86487473D01*
X114982707Y-86489391D01*
X114974714Y-86490436D01*
X114958379Y-86491500D01*
X84049367Y-86491500D01*
X84029982Y-86490000D01*
X84015149Y-86487690D01*
X84015145Y-86487690D01*
X84006276Y-86486309D01*
X83989077Y-86488558D01*
X83965137Y-86489391D01*
X83707290Y-86473794D01*
X83692186Y-86471960D01*
X83620214Y-86458771D01*
X83411240Y-86420475D01*
X83396473Y-86416836D01*
X83123769Y-86331858D01*
X83109555Y-86326466D01*
X82849092Y-86209242D01*
X82835621Y-86202172D01*
X82591187Y-86054405D01*
X82578666Y-86045762D01*
X82353829Y-85869615D01*
X82342440Y-85859525D01*
X82140475Y-85657560D01*
X82130385Y-85646171D01*
X81954238Y-85421334D01*
X81945595Y-85408813D01*
X81797828Y-85164379D01*
X81790757Y-85150906D01*
X81787697Y-85144106D01*
X81673534Y-84890445D01*
X81668141Y-84876227D01*
X81667659Y-84874678D01*
X81583164Y-84603526D01*
X81579523Y-84588754D01*
X81563839Y-84503164D01*
X81528040Y-84307814D01*
X81526206Y-84292710D01*
X81511269Y-84045768D01*
X81512520Y-84022216D01*
X81512334Y-84022199D01*
X81512769Y-84017350D01*
X81513576Y-84012552D01*
X81513729Y-84000000D01*
X82386526Y-84000000D01*
X82406391Y-84252403D01*
X82407545Y-84257210D01*
X82407546Y-84257216D01*
X82417894Y-84300317D01*
X82465495Y-84498591D01*
X82467388Y-84503162D01*
X82467389Y-84503164D01*
X82547543Y-84696672D01*
X82562384Y-84732502D01*
X82694672Y-84948376D01*
X82859102Y-85140898D01*
X83051624Y-85305328D01*
X83267498Y-85437616D01*
X83272068Y-85439509D01*
X83272072Y-85439511D01*
X83496228Y-85532359D01*
X83501409Y-85534505D01*
X83580809Y-85553567D01*
X83742784Y-85592454D01*
X83742790Y-85592455D01*
X83747597Y-85593609D01*
X83847416Y-85601465D01*
X83934345Y-85608307D01*
X83934352Y-85608307D01*
X83936801Y-85608500D01*
X84063199Y-85608500D01*
X84065648Y-85608307D01*
X84065655Y-85608307D01*
X84152584Y-85601465D01*
X84252403Y-85593609D01*
X84257210Y-85592455D01*
X84257216Y-85592454D01*
X84419191Y-85553567D01*
X84498591Y-85534505D01*
X84503772Y-85532359D01*
X84727928Y-85439511D01*
X84727932Y-85439509D01*
X84732502Y-85437616D01*
X84948376Y-85305328D01*
X85140898Y-85140898D01*
X85177422Y-85098134D01*
X91031500Y-85098134D01*
X91038255Y-85160316D01*
X91089385Y-85296705D01*
X91176739Y-85413261D01*
X91293295Y-85500615D01*
X91429684Y-85551745D01*
X91491866Y-85558500D01*
X93288134Y-85558500D01*
X93350316Y-85551745D01*
X93486705Y-85500615D01*
X93603261Y-85413261D01*
X93690615Y-85296705D01*
X93712799Y-85237529D01*
X93734598Y-85179382D01*
X93777240Y-85122618D01*
X93843802Y-85097918D01*
X93913150Y-85113126D01*
X93947817Y-85141114D01*
X93976250Y-85173938D01*
X94148126Y-85316632D01*
X94341000Y-85429338D01*
X94549692Y-85509030D01*
X94554760Y-85510061D01*
X94554763Y-85510062D01*
X94649862Y-85529410D01*
X94768597Y-85553567D01*
X94773772Y-85553757D01*
X94773774Y-85553757D01*
X94986673Y-85561564D01*
X94986677Y-85561564D01*
X94991837Y-85561753D01*
X94996957Y-85561097D01*
X94996959Y-85561097D01*
X95208288Y-85534025D01*
X95208289Y-85534025D01*
X95213416Y-85533368D01*
X95218366Y-85531883D01*
X95422429Y-85470661D01*
X95422434Y-85470659D01*
X95427384Y-85469174D01*
X95627994Y-85370896D01*
X95809860Y-85241173D01*
X95968096Y-85083489D01*
X96098453Y-84902077D01*
X96099776Y-84903028D01*
X96146645Y-84859857D01*
X96216580Y-84847625D01*
X96282026Y-84875144D01*
X96309875Y-84906994D01*
X96369987Y-85005088D01*
X96516250Y-85173938D01*
X96688126Y-85316632D01*
X96881000Y-85429338D01*
X97089692Y-85509030D01*
X97094760Y-85510061D01*
X97094763Y-85510062D01*
X97189862Y-85529410D01*
X97308597Y-85553567D01*
X97313772Y-85553757D01*
X97313774Y-85553757D01*
X97526673Y-85561564D01*
X97526677Y-85561564D01*
X97531837Y-85561753D01*
X97536957Y-85561097D01*
X97536959Y-85561097D01*
X97748288Y-85534025D01*
X97748289Y-85534025D01*
X97753416Y-85533368D01*
X97758366Y-85531883D01*
X97962429Y-85470661D01*
X97962434Y-85470659D01*
X97967384Y-85469174D01*
X98167994Y-85370896D01*
X98349860Y-85241173D01*
X98508096Y-85083489D01*
X98638453Y-84902077D01*
X98639640Y-84902930D01*
X98686960Y-84859362D01*
X98756897Y-84847145D01*
X98822338Y-84874678D01*
X98850166Y-84906511D01*
X98907694Y-85000388D01*
X98913777Y-85008699D01*
X99053213Y-85169667D01*
X99060580Y-85176883D01*
X99224434Y-85312916D01*
X99232881Y-85318831D01*
X99416756Y-85426279D01*
X99426042Y-85430729D01*
X99625001Y-85506703D01*
X99634899Y-85509579D01*
X99738250Y-85530606D01*
X99752299Y-85529410D01*
X99756000Y-85519065D01*
X99756000Y-85518517D01*
X100264000Y-85518517D01*
X100268064Y-85532359D01*
X100281478Y-85534393D01*
X100288184Y-85533534D01*
X100298262Y-85531392D01*
X100502255Y-85470191D01*
X100511842Y-85466433D01*
X100703095Y-85372739D01*
X100711945Y-85367464D01*
X100885328Y-85243792D01*
X100893200Y-85237139D01*
X101044052Y-85086812D01*
X101050730Y-85078965D01*
X101175003Y-84906020D01*
X101180313Y-84897183D01*
X101274670Y-84706267D01*
X101278469Y-84696672D01*
X101340377Y-84492910D01*
X101342555Y-84482837D01*
X101343986Y-84471962D01*
X101341775Y-84457778D01*
X101328617Y-84454000D01*
X100282115Y-84454000D01*
X100266876Y-84458475D01*
X100265671Y-84459865D01*
X100264000Y-84467548D01*
X100264000Y-85518517D01*
X99756000Y-85518517D01*
X99756000Y-84000000D01*
X113386526Y-84000000D01*
X113406391Y-84252403D01*
X113407545Y-84257210D01*
X113407546Y-84257216D01*
X113417894Y-84300317D01*
X113465495Y-84498591D01*
X113467388Y-84503162D01*
X113467389Y-84503164D01*
X113547543Y-84696672D01*
X113562384Y-84732502D01*
X113694672Y-84948376D01*
X113859102Y-85140898D01*
X114051624Y-85305328D01*
X114267498Y-85437616D01*
X114272068Y-85439509D01*
X114272072Y-85439511D01*
X114496228Y-85532359D01*
X114501409Y-85534505D01*
X114580809Y-85553567D01*
X114742784Y-85592454D01*
X114742790Y-85592455D01*
X114747597Y-85593609D01*
X114847416Y-85601465D01*
X114934345Y-85608307D01*
X114934352Y-85608307D01*
X114936801Y-85608500D01*
X115063199Y-85608500D01*
X115065648Y-85608307D01*
X115065655Y-85608307D01*
X115152584Y-85601465D01*
X115252403Y-85593609D01*
X115257210Y-85592455D01*
X115257216Y-85592454D01*
X115419191Y-85553567D01*
X115498591Y-85534505D01*
X115503772Y-85532359D01*
X115727928Y-85439511D01*
X115727932Y-85439509D01*
X115732502Y-85437616D01*
X115948376Y-85305328D01*
X116140898Y-85140898D01*
X116305328Y-84948376D01*
X116437616Y-84732502D01*
X116452458Y-84696672D01*
X116532611Y-84503164D01*
X116532612Y-84503162D01*
X116534505Y-84498591D01*
X116582106Y-84300317D01*
X116592454Y-84257216D01*
X116592455Y-84257210D01*
X116593609Y-84252403D01*
X116613474Y-84000000D01*
X116593609Y-83747597D01*
X116584921Y-83711406D01*
X116539447Y-83521993D01*
X116534505Y-83501409D01*
X116470432Y-83346722D01*
X116439511Y-83272072D01*
X116439509Y-83272068D01*
X116437616Y-83267498D01*
X116305328Y-83051624D01*
X116140898Y-82859102D01*
X115948376Y-82694672D01*
X115732502Y-82562384D01*
X115727932Y-82560491D01*
X115727928Y-82560489D01*
X115503164Y-82467389D01*
X115503162Y-82467388D01*
X115498591Y-82465495D01*
X115413968Y-82445179D01*
X115257216Y-82407546D01*
X115257210Y-82407545D01*
X115252403Y-82406391D01*
X115152584Y-82398535D01*
X115065655Y-82391693D01*
X115065648Y-82391693D01*
X115063199Y-82391500D01*
X114936801Y-82391500D01*
X114934352Y-82391693D01*
X114934345Y-82391693D01*
X114847416Y-82398535D01*
X114747597Y-82406391D01*
X114742790Y-82407545D01*
X114742784Y-82407546D01*
X114586032Y-82445179D01*
X114501409Y-82465495D01*
X114496838Y-82467388D01*
X114496836Y-82467389D01*
X114272072Y-82560489D01*
X114272068Y-82560491D01*
X114267498Y-82562384D01*
X114051624Y-82694672D01*
X113859102Y-82859102D01*
X113694672Y-83051624D01*
X113562384Y-83267498D01*
X113560491Y-83272068D01*
X113560489Y-83272072D01*
X113529568Y-83346722D01*
X113465495Y-83501409D01*
X113460553Y-83521993D01*
X113415080Y-83711406D01*
X113406391Y-83747597D01*
X113386526Y-84000000D01*
X99756000Y-84000000D01*
X99756000Y-83927885D01*
X100264000Y-83927885D01*
X100268475Y-83943124D01*
X100269865Y-83944329D01*
X100277548Y-83946000D01*
X101328344Y-83946000D01*
X101341875Y-83942027D01*
X101343180Y-83932947D01*
X101301214Y-83765875D01*
X101297894Y-83756124D01*
X101212972Y-83560814D01*
X101208105Y-83551739D01*
X101092426Y-83372926D01*
X101086136Y-83364757D01*
X100942806Y-83207240D01*
X100935273Y-83200215D01*
X100768139Y-83068222D01*
X100759552Y-83062517D01*
X100573117Y-82959599D01*
X100563705Y-82955369D01*
X100362959Y-82884280D01*
X100352988Y-82881646D01*
X100281837Y-82868972D01*
X100268540Y-82870432D01*
X100264000Y-82884989D01*
X100264000Y-83927885D01*
X99756000Y-83927885D01*
X99756000Y-82883102D01*
X99752082Y-82869758D01*
X99737806Y-82867771D01*
X99699324Y-82873660D01*
X99689288Y-82876051D01*
X99486868Y-82942212D01*
X99477359Y-82946209D01*
X99288463Y-83044542D01*
X99279738Y-83050036D01*
X99109433Y-83177905D01*
X99101726Y-83184748D01*
X98954590Y-83338717D01*
X98948109Y-83346722D01*
X98843498Y-83500074D01*
X98788587Y-83545076D01*
X98718062Y-83553247D01*
X98654315Y-83521993D01*
X98633618Y-83497509D01*
X98552822Y-83372617D01*
X98552820Y-83372614D01*
X98550014Y-83368277D01*
X98399670Y-83203051D01*
X98395619Y-83199852D01*
X98395615Y-83199848D01*
X98228414Y-83067800D01*
X98228410Y-83067798D01*
X98224359Y-83064598D01*
X98188028Y-83044542D01*
X98172136Y-83035769D01*
X98028789Y-82956638D01*
X98023920Y-82954914D01*
X98023916Y-82954912D01*
X97823087Y-82883795D01*
X97823083Y-82883794D01*
X97818212Y-82882069D01*
X97813119Y-82881162D01*
X97813116Y-82881161D01*
X97603373Y-82843800D01*
X97603367Y-82843799D01*
X97598284Y-82842894D01*
X97524452Y-82841992D01*
X97380081Y-82840228D01*
X97380079Y-82840228D01*
X97374911Y-82840165D01*
X97154091Y-82873955D01*
X96941756Y-82943357D01*
X96868757Y-82981358D01*
X96817398Y-83008094D01*
X96743607Y-83046507D01*
X96739474Y-83049610D01*
X96739471Y-83049612D01*
X96569100Y-83177530D01*
X96564965Y-83180635D01*
X96561393Y-83184373D01*
X96453729Y-83297037D01*
X96410629Y-83342138D01*
X96303201Y-83499621D01*
X96248293Y-83544621D01*
X96177768Y-83552792D01*
X96114021Y-83521538D01*
X96093324Y-83497054D01*
X96012822Y-83372617D01*
X96012820Y-83372614D01*
X96010014Y-83368277D01*
X95859670Y-83203051D01*
X95855619Y-83199852D01*
X95855615Y-83199848D01*
X95688419Y-83067804D01*
X95688413Y-83067800D01*
X95684359Y-83064598D01*
X95680269Y-83062340D01*
X95634693Y-83008094D01*
X95625661Y-82937675D01*
X95656135Y-82873551D01*
X95716438Y-82836081D01*
X95750091Y-82831504D01*
X95786472Y-82831504D01*
X95792925Y-82830132D01*
X95792929Y-82830132D01*
X95874732Y-82812744D01*
X95962992Y-82793984D01*
X96103324Y-82731504D01*
X96121825Y-82723267D01*
X96121827Y-82723266D01*
X96127855Y-82720582D01*
X96133197Y-82716701D01*
X96268509Y-82618391D01*
X96268511Y-82618389D01*
X96273853Y-82614508D01*
X96394607Y-82480397D01*
X96484839Y-82324111D01*
X96540605Y-82152479D01*
X96559469Y-81973004D01*
X96540605Y-81793529D01*
X96484839Y-81621897D01*
X96394607Y-81465611D01*
X96273853Y-81331500D01*
X96228162Y-81298303D01*
X96133197Y-81229307D01*
X96133196Y-81229306D01*
X96127855Y-81225426D01*
X96121827Y-81222742D01*
X96121825Y-81222741D01*
X95969023Y-81154709D01*
X95969021Y-81154709D01*
X95962992Y-81152024D01*
X95874732Y-81133264D01*
X95792929Y-81115876D01*
X95792925Y-81115876D01*
X95786472Y-81114504D01*
X95606008Y-81114504D01*
X95599555Y-81115876D01*
X95599551Y-81115876D01*
X95517748Y-81133264D01*
X95429488Y-81152024D01*
X95423459Y-81154708D01*
X95423457Y-81154709D01*
X95313623Y-81203611D01*
X95262374Y-81214504D01*
X94479841Y-81214504D01*
X94453644Y-81211751D01*
X94327189Y-81184872D01*
X94327185Y-81184872D01*
X94320732Y-81183500D01*
X94140268Y-81183500D01*
X94133815Y-81184872D01*
X94133811Y-81184872D01*
X94052008Y-81202260D01*
X93963748Y-81221020D01*
X93957719Y-81223704D01*
X93957717Y-81223705D01*
X93804916Y-81291737D01*
X93804914Y-81291738D01*
X93798886Y-81294422D01*
X93793545Y-81298302D01*
X93793544Y-81298303D01*
X93658231Y-81396613D01*
X93658229Y-81396615D01*
X93652887Y-81400496D01*
X93532133Y-81534607D01*
X93441901Y-81690893D01*
X93386135Y-81862525D01*
X93367271Y-82042000D01*
X93386135Y-82221475D01*
X93441901Y-82393107D01*
X93445204Y-82398829D01*
X93445205Y-82398830D01*
X93450237Y-82407546D01*
X93532133Y-82549393D01*
X93536551Y-82554300D01*
X93536552Y-82554301D01*
X93586341Y-82609597D01*
X93652887Y-82683504D01*
X93658229Y-82687385D01*
X93658231Y-82687387D01*
X93703920Y-82720582D01*
X93798885Y-82789578D01*
X93804913Y-82792262D01*
X93804915Y-82792263D01*
X93957717Y-82860295D01*
X93963748Y-82862980D01*
X93970203Y-82864352D01*
X93970206Y-82864353D01*
X94070121Y-82885590D01*
X94132595Y-82919318D01*
X94166917Y-82981467D01*
X94162189Y-83052307D01*
X94119578Y-83109597D01*
X94029100Y-83177530D01*
X94024965Y-83180635D01*
X93945990Y-83263278D01*
X93944283Y-83265064D01*
X93882759Y-83300494D01*
X93811846Y-83297037D01*
X93754060Y-83255791D01*
X93735207Y-83222243D01*
X93693767Y-83111703D01*
X93690615Y-83103295D01*
X93603261Y-82986739D01*
X93486705Y-82899385D01*
X93350316Y-82848255D01*
X93288134Y-82841500D01*
X91491866Y-82841500D01*
X91429684Y-82848255D01*
X91293295Y-82899385D01*
X91176739Y-82986739D01*
X91089385Y-83103295D01*
X91038255Y-83239684D01*
X91031500Y-83301866D01*
X91031500Y-85098134D01*
X85177422Y-85098134D01*
X85305328Y-84948376D01*
X85437616Y-84732502D01*
X85452458Y-84696672D01*
X85532611Y-84503164D01*
X85532612Y-84503162D01*
X85534505Y-84498591D01*
X85582106Y-84300317D01*
X85592454Y-84257216D01*
X85592455Y-84257210D01*
X85593609Y-84252403D01*
X85613474Y-84000000D01*
X85593609Y-83747597D01*
X85584921Y-83711406D01*
X85539447Y-83521993D01*
X85534505Y-83501409D01*
X85470432Y-83346722D01*
X85439511Y-83272072D01*
X85439509Y-83272068D01*
X85437616Y-83267498D01*
X85305328Y-83051624D01*
X85140898Y-82859102D01*
X84948376Y-82694672D01*
X84732502Y-82562384D01*
X84727932Y-82560491D01*
X84727928Y-82560489D01*
X84503164Y-82467389D01*
X84503162Y-82467388D01*
X84498591Y-82465495D01*
X84413968Y-82445179D01*
X84257216Y-82407546D01*
X84257210Y-82407545D01*
X84252403Y-82406391D01*
X84152584Y-82398535D01*
X84065655Y-82391693D01*
X84065648Y-82391693D01*
X84063199Y-82391500D01*
X83936801Y-82391500D01*
X83934352Y-82391693D01*
X83934345Y-82391693D01*
X83847416Y-82398535D01*
X83747597Y-82406391D01*
X83742790Y-82407545D01*
X83742784Y-82407546D01*
X83586032Y-82445179D01*
X83501409Y-82465495D01*
X83496838Y-82467388D01*
X83496836Y-82467389D01*
X83272072Y-82560489D01*
X83272068Y-82560491D01*
X83267498Y-82562384D01*
X83051624Y-82694672D01*
X82859102Y-82859102D01*
X82694672Y-83051624D01*
X82562384Y-83267498D01*
X82560491Y-83272068D01*
X82560489Y-83272072D01*
X82529568Y-83346722D01*
X82465495Y-83501409D01*
X82460553Y-83521993D01*
X82415080Y-83711406D01*
X82406391Y-83747597D01*
X82386526Y-84000000D01*
X81513729Y-84000000D01*
X81509773Y-83972376D01*
X81508500Y-83954514D01*
X81508500Y-78994000D01*
X98487271Y-78994000D01*
X98506135Y-79173475D01*
X98561901Y-79345107D01*
X98652133Y-79501393D01*
X98772887Y-79635504D01*
X98918885Y-79741578D01*
X98924913Y-79744262D01*
X98924915Y-79744263D01*
X98943416Y-79752500D01*
X99083748Y-79814980D01*
X99172008Y-79833740D01*
X99253811Y-79851128D01*
X99253815Y-79851128D01*
X99260268Y-79852500D01*
X99440732Y-79852500D01*
X99447185Y-79851128D01*
X99447189Y-79851128D01*
X99528992Y-79833740D01*
X99617252Y-79814980D01*
X99733118Y-79763393D01*
X99784367Y-79752500D01*
X100404133Y-79752500D01*
X100455382Y-79763393D01*
X100571248Y-79814980D01*
X100659508Y-79833740D01*
X100741311Y-79851128D01*
X100741315Y-79851128D01*
X100747768Y-79852500D01*
X100928232Y-79852500D01*
X100934685Y-79851128D01*
X100934689Y-79851128D01*
X101016492Y-79833740D01*
X101104752Y-79814980D01*
X101245084Y-79752500D01*
X101263585Y-79744263D01*
X101263587Y-79744262D01*
X101269615Y-79741578D01*
X101415613Y-79635504D01*
X101536367Y-79501393D01*
X101626599Y-79345107D01*
X101682365Y-79173475D01*
X101701229Y-78994000D01*
X101682365Y-78814525D01*
X101626599Y-78642893D01*
X101536367Y-78486607D01*
X101415613Y-78352496D01*
X101269615Y-78246422D01*
X101263587Y-78243738D01*
X101263585Y-78243737D01*
X101110783Y-78175705D01*
X101110781Y-78175705D01*
X101104752Y-78173020D01*
X101016492Y-78154260D01*
X100934689Y-78136872D01*
X100934685Y-78136872D01*
X100928232Y-78135500D01*
X100747768Y-78135500D01*
X100741315Y-78136872D01*
X100741311Y-78136872D01*
X100659508Y-78154260D01*
X100571248Y-78173020D01*
X100565219Y-78175704D01*
X100565217Y-78175705D01*
X100455383Y-78224607D01*
X100404134Y-78235500D01*
X99784367Y-78235500D01*
X99733118Y-78224607D01*
X99623283Y-78175705D01*
X99623281Y-78175705D01*
X99617252Y-78173020D01*
X99528992Y-78154260D01*
X99447189Y-78136872D01*
X99447185Y-78136872D01*
X99440732Y-78135500D01*
X99260268Y-78135500D01*
X99253815Y-78136872D01*
X99253811Y-78136872D01*
X99172008Y-78154260D01*
X99083748Y-78173020D01*
X99077719Y-78175704D01*
X99077717Y-78175705D01*
X98924916Y-78243737D01*
X98924914Y-78243738D01*
X98918886Y-78246422D01*
X98913545Y-78250302D01*
X98913544Y-78250303D01*
X98778231Y-78348613D01*
X98778229Y-78348615D01*
X98772887Y-78352496D01*
X98652133Y-78486607D01*
X98561901Y-78642893D01*
X98506135Y-78814525D01*
X98487271Y-78994000D01*
X81508500Y-78994000D01*
X81508500Y-74090670D01*
X109716616Y-74090670D01*
X109777138Y-74287400D01*
X109781359Y-74297744D01*
X109877164Y-74483362D01*
X109883149Y-74492793D01*
X110010314Y-74658517D01*
X110017870Y-74666734D01*
X110172369Y-74807318D01*
X110181268Y-74814072D01*
X110358211Y-74925069D01*
X110368177Y-74930146D01*
X110561969Y-75008050D01*
X110572684Y-75011285D01*
X110778186Y-75053843D01*
X110787322Y-75055046D01*
X110836735Y-75057895D01*
X110840382Y-75058000D01*
X110927885Y-75058000D01*
X110943124Y-75053525D01*
X110944329Y-75052135D01*
X110946000Y-75044452D01*
X110946000Y-75039885D01*
X111454000Y-75039885D01*
X111458475Y-75055124D01*
X111459865Y-75056329D01*
X111467548Y-75058000D01*
X111528041Y-75058000D01*
X111533636Y-75057751D01*
X111688633Y-75043917D01*
X111699647Y-75041935D01*
X111901116Y-74986820D01*
X111911589Y-74982926D01*
X112100123Y-74892999D01*
X112109738Y-74887313D01*
X112279365Y-74765424D01*
X112287831Y-74758116D01*
X112433191Y-74608117D01*
X112440221Y-74599435D01*
X112556728Y-74426055D01*
X112562107Y-74416269D01*
X112638431Y-74242399D01*
X113625428Y-74242399D01*
X113644940Y-74323361D01*
X113648829Y-74334656D01*
X113729400Y-74511863D01*
X113735347Y-74522205D01*
X113847979Y-74680987D01*
X113855772Y-74690016D01*
X113996393Y-74824631D01*
X114005768Y-74832035D01*
X114169292Y-74937620D01*
X114179906Y-74943121D01*
X114360449Y-75015883D01*
X114371898Y-75019275D01*
X114564391Y-75056866D01*
X114573201Y-75057936D01*
X114575828Y-75058000D01*
X114727885Y-75058000D01*
X114743124Y-75053525D01*
X114744329Y-75052135D01*
X114746000Y-75044452D01*
X114746000Y-75039885D01*
X115254000Y-75039885D01*
X115258475Y-75055124D01*
X115259865Y-75056329D01*
X115267548Y-75058000D01*
X115373637Y-75058000D01*
X115379613Y-75057715D01*
X115524745Y-75043868D01*
X115536480Y-75041609D01*
X115723268Y-74986812D01*
X115734351Y-74982379D01*
X115907406Y-74893249D01*
X115917461Y-74886793D01*
X116070537Y-74766551D01*
X116079190Y-74758311D01*
X116206760Y-74611299D01*
X116213702Y-74601567D01*
X116311177Y-74433076D01*
X116316150Y-74422215D01*
X116379065Y-74241038D01*
X116377918Y-74232993D01*
X116364349Y-74229000D01*
X115272115Y-74229000D01*
X115256876Y-74233475D01*
X115255671Y-74234865D01*
X115254000Y-74242548D01*
X115254000Y-75039885D01*
X114746000Y-75039885D01*
X114746000Y-74247115D01*
X114741525Y-74231876D01*
X114740135Y-74230671D01*
X114732452Y-74229000D01*
X113640314Y-74229000D01*
X113626783Y-74232973D01*
X113625428Y-74242399D01*
X112638431Y-74242399D01*
X112646067Y-74225004D01*
X112649632Y-74214412D01*
X112677912Y-74096615D01*
X112677207Y-74082530D01*
X112668328Y-74079000D01*
X111472115Y-74079000D01*
X111456876Y-74083475D01*
X111455671Y-74084865D01*
X111454000Y-74092548D01*
X111454000Y-75039885D01*
X110946000Y-75039885D01*
X110946000Y-74097115D01*
X110941525Y-74081876D01*
X110940135Y-74080671D01*
X110932452Y-74079000D01*
X109731774Y-74079000D01*
X109717790Y-74083106D01*
X109716616Y-74090670D01*
X81508500Y-74090670D01*
X81508500Y-73708962D01*
X113620935Y-73708962D01*
X113622082Y-73717007D01*
X113635651Y-73721000D01*
X114727885Y-73721000D01*
X114743124Y-73716525D01*
X114744329Y-73715135D01*
X114746000Y-73707452D01*
X114746000Y-73702885D01*
X115254000Y-73702885D01*
X115258475Y-73718124D01*
X115259865Y-73719329D01*
X115267548Y-73721000D01*
X116359686Y-73721000D01*
X116373217Y-73717027D01*
X116374572Y-73707601D01*
X116355060Y-73626639D01*
X116351171Y-73615344D01*
X116270600Y-73438137D01*
X116264653Y-73427795D01*
X116152021Y-73269013D01*
X116144228Y-73259984D01*
X116003607Y-73125369D01*
X115994232Y-73117965D01*
X115830708Y-73012380D01*
X115820094Y-73006879D01*
X115639551Y-72934117D01*
X115628102Y-72930725D01*
X115435609Y-72893134D01*
X115426799Y-72892064D01*
X115424172Y-72892000D01*
X115272115Y-72892000D01*
X115256876Y-72896475D01*
X115255671Y-72897865D01*
X115254000Y-72905548D01*
X115254000Y-73702885D01*
X114746000Y-73702885D01*
X114746000Y-72910115D01*
X114741525Y-72894876D01*
X114740135Y-72893671D01*
X114732452Y-72892000D01*
X114626363Y-72892000D01*
X114620387Y-72892285D01*
X114475255Y-72906132D01*
X114463520Y-72908391D01*
X114276732Y-72963188D01*
X114265649Y-72967621D01*
X114092594Y-73056751D01*
X114082539Y-73063207D01*
X113929463Y-73183449D01*
X113920810Y-73191689D01*
X113793240Y-73338701D01*
X113786298Y-73348433D01*
X113688823Y-73516924D01*
X113683850Y-73527785D01*
X113620935Y-73708962D01*
X81508500Y-73708962D01*
X81508500Y-73553385D01*
X109722088Y-73553385D01*
X109722793Y-73567470D01*
X109731672Y-73571000D01*
X110927885Y-73571000D01*
X110943124Y-73566525D01*
X110944329Y-73565135D01*
X110946000Y-73557452D01*
X110946000Y-72610115D01*
X110943030Y-72600000D01*
X111336496Y-72600000D01*
X111356458Y-72789928D01*
X111415473Y-72971556D01*
X111418776Y-72977278D01*
X111418777Y-72977279D01*
X111437119Y-73009048D01*
X111454000Y-73072048D01*
X111454000Y-73552885D01*
X111458475Y-73568124D01*
X111459865Y-73569329D01*
X111467548Y-73571000D01*
X112668226Y-73571000D01*
X112682210Y-73566894D01*
X112683384Y-73559331D01*
X112671833Y-73521785D01*
X112670920Y-73450794D01*
X112708533Y-73390579D01*
X112718202Y-73382799D01*
X112861253Y-73278866D01*
X112870125Y-73269013D01*
X112984621Y-73141852D01*
X112984622Y-73141851D01*
X112989040Y-73136944D01*
X113084527Y-72971556D01*
X113143542Y-72789928D01*
X113163504Y-72600000D01*
X113143542Y-72410072D01*
X113084527Y-72228444D01*
X112989040Y-72063056D01*
X112861253Y-71921134D01*
X112706752Y-71808882D01*
X112700724Y-71806198D01*
X112700722Y-71806197D01*
X112538319Y-71733891D01*
X112538318Y-71733891D01*
X112532288Y-71731206D01*
X112438888Y-71711353D01*
X112351944Y-71692872D01*
X112351939Y-71692872D01*
X112345487Y-71691500D01*
X112154513Y-71691500D01*
X112148061Y-71692872D01*
X112148056Y-71692872D01*
X112061112Y-71711353D01*
X111967712Y-71731206D01*
X111961682Y-71733891D01*
X111961681Y-71733891D01*
X111799278Y-71806197D01*
X111799276Y-71806198D01*
X111793248Y-71808882D01*
X111638747Y-71921134D01*
X111510960Y-72063056D01*
X111415473Y-72228444D01*
X111356458Y-72410072D01*
X111336496Y-72600000D01*
X110943030Y-72600000D01*
X110941525Y-72594876D01*
X110940135Y-72593671D01*
X110932452Y-72592000D01*
X110871959Y-72592000D01*
X110866364Y-72592249D01*
X110711367Y-72606083D01*
X110700353Y-72608065D01*
X110498884Y-72663180D01*
X110488411Y-72667074D01*
X110299877Y-72757001D01*
X110290262Y-72762687D01*
X110120635Y-72884576D01*
X110112169Y-72891884D01*
X109966809Y-73041883D01*
X109959779Y-73050565D01*
X109843272Y-73223945D01*
X109837893Y-73233731D01*
X109753933Y-73424996D01*
X109750368Y-73435588D01*
X109722088Y-73553385D01*
X81508500Y-73553385D01*
X81508500Y-68247064D01*
X82107707Y-68247064D01*
X82136825Y-68439599D01*
X82139028Y-68445585D01*
X82139029Y-68445591D01*
X82201860Y-68616360D01*
X82201862Y-68616365D01*
X82204063Y-68622346D01*
X82306674Y-68787840D01*
X82440466Y-68929322D01*
X82599975Y-69041011D01*
X82605838Y-69043548D01*
X82772825Y-69115810D01*
X82772829Y-69115811D01*
X82778684Y-69118345D01*
X82784931Y-69119650D01*
X82784934Y-69119651D01*
X82964557Y-69157176D01*
X82964562Y-69157177D01*
X82969293Y-69158165D01*
X82975685Y-69158500D01*
X83118663Y-69158500D01*
X83187951Y-69151462D01*
X83257378Y-69144410D01*
X83257379Y-69144410D01*
X83263727Y-69143765D01*
X83344843Y-69118345D01*
X83443451Y-69087444D01*
X83443456Y-69087442D01*
X83449541Y-69085535D01*
X83536475Y-69037346D01*
X83614271Y-68994223D01*
X83614274Y-68994221D01*
X83619850Y-68991130D01*
X83624691Y-68986981D01*
X83624695Y-68986978D01*
X83762855Y-68868560D01*
X83767698Y-68864409D01*
X83887046Y-68710547D01*
X83927779Y-68627768D01*
X83970200Y-68541556D01*
X83973018Y-68535829D01*
X83990122Y-68470166D01*
X84020492Y-68353575D01*
X84020492Y-68353572D01*
X84022102Y-68347393D01*
X84032293Y-68152936D01*
X84003175Y-67960401D01*
X84000972Y-67954415D01*
X84000971Y-67954409D01*
X83938140Y-67783640D01*
X83938138Y-67783635D01*
X83935937Y-67777654D01*
X83833326Y-67612160D01*
X83816581Y-67594452D01*
X83703919Y-67475315D01*
X83699534Y-67470678D01*
X83540025Y-67358989D01*
X83492013Y-67338212D01*
X83367175Y-67284190D01*
X83367171Y-67284189D01*
X83361316Y-67281655D01*
X83355069Y-67280350D01*
X83355066Y-67280349D01*
X83175443Y-67242824D01*
X83175438Y-67242823D01*
X83170707Y-67241835D01*
X83164315Y-67241500D01*
X83021337Y-67241500D01*
X82952049Y-67248538D01*
X82882622Y-67255590D01*
X82882621Y-67255590D01*
X82876273Y-67256235D01*
X82845486Y-67265883D01*
X82696549Y-67312556D01*
X82696544Y-67312558D01*
X82690459Y-67314465D01*
X82614713Y-67356452D01*
X82525729Y-67405777D01*
X82525726Y-67405779D01*
X82520150Y-67408870D01*
X82515309Y-67413019D01*
X82515305Y-67413022D01*
X82377145Y-67531440D01*
X82372302Y-67535591D01*
X82368391Y-67540633D01*
X82368390Y-67540634D01*
X82322341Y-67600000D01*
X82252954Y-67689453D01*
X82250138Y-67695176D01*
X82250136Y-67695179D01*
X82206608Y-67783640D01*
X82166982Y-67864171D01*
X82165373Y-67870349D01*
X82165372Y-67870351D01*
X82137520Y-67977279D01*
X82117898Y-68052607D01*
X82107707Y-68247064D01*
X81508500Y-68247064D01*
X81508500Y-66640670D01*
X109716616Y-66640670D01*
X109777138Y-66837400D01*
X109781359Y-66847744D01*
X109877164Y-67033362D01*
X109883149Y-67042793D01*
X110010314Y-67208517D01*
X110017870Y-67216734D01*
X110172369Y-67357318D01*
X110181268Y-67364072D01*
X110358211Y-67475069D01*
X110368177Y-67480146D01*
X110561969Y-67558050D01*
X110572684Y-67561285D01*
X110778186Y-67603843D01*
X110787322Y-67605046D01*
X110836735Y-67607895D01*
X110840382Y-67608000D01*
X110927885Y-67608000D01*
X110943124Y-67603525D01*
X110944329Y-67602135D01*
X110944793Y-67600000D01*
X111336496Y-67600000D01*
X111337186Y-67606565D01*
X111346500Y-67695179D01*
X111356458Y-67789928D01*
X111415473Y-67971556D01*
X111510960Y-68136944D01*
X111638747Y-68278866D01*
X111793248Y-68391118D01*
X111799276Y-68393802D01*
X111799278Y-68393803D01*
X111915597Y-68445591D01*
X111967712Y-68468794D01*
X112061112Y-68488647D01*
X112148056Y-68507128D01*
X112148061Y-68507128D01*
X112154513Y-68508500D01*
X112345487Y-68508500D01*
X112351939Y-68507128D01*
X112351944Y-68507128D01*
X112438888Y-68488647D01*
X112532288Y-68468794D01*
X112584403Y-68445591D01*
X112700722Y-68393803D01*
X112700724Y-68393802D01*
X112706752Y-68391118D01*
X112861253Y-68278866D01*
X112989040Y-68136944D01*
X113084527Y-67971556D01*
X113143542Y-67789928D01*
X113153501Y-67695179D01*
X113162814Y-67606565D01*
X113163504Y-67600000D01*
X113159095Y-67558050D01*
X113144232Y-67416635D01*
X113144232Y-67416633D01*
X113143542Y-67410072D01*
X113084527Y-67228444D01*
X112989040Y-67063056D01*
X112962304Y-67033362D01*
X112865675Y-66926045D01*
X112865674Y-66926044D01*
X112861253Y-66921134D01*
X112717135Y-66816426D01*
X112673782Y-66760205D01*
X112668678Y-66685077D01*
X112677912Y-66646615D01*
X112677207Y-66632530D01*
X112668328Y-66629000D01*
X111472115Y-66629000D01*
X111456876Y-66633475D01*
X111455671Y-66634865D01*
X111454000Y-66642548D01*
X111454000Y-67127952D01*
X111437119Y-67190952D01*
X111415473Y-67228444D01*
X111356458Y-67410072D01*
X111355768Y-67416633D01*
X111355768Y-67416635D01*
X111340905Y-67558050D01*
X111336496Y-67600000D01*
X110944793Y-67600000D01*
X110946000Y-67594452D01*
X110946000Y-66647115D01*
X110941525Y-66631876D01*
X110940135Y-66630671D01*
X110932452Y-66629000D01*
X109731774Y-66629000D01*
X109717790Y-66633106D01*
X109716616Y-66640670D01*
X81508500Y-66640670D01*
X81508500Y-66492399D01*
X113625428Y-66492399D01*
X113644940Y-66573361D01*
X113648829Y-66584656D01*
X113729400Y-66761863D01*
X113735347Y-66772205D01*
X113847979Y-66930987D01*
X113855772Y-66940016D01*
X113996393Y-67074631D01*
X114005768Y-67082035D01*
X114169292Y-67187620D01*
X114179906Y-67193121D01*
X114360449Y-67265883D01*
X114371898Y-67269275D01*
X114564391Y-67306866D01*
X114573201Y-67307936D01*
X114575828Y-67308000D01*
X114727885Y-67308000D01*
X114743124Y-67303525D01*
X114744329Y-67302135D01*
X114746000Y-67294452D01*
X114746000Y-67289885D01*
X115254000Y-67289885D01*
X115258475Y-67305124D01*
X115259865Y-67306329D01*
X115267548Y-67308000D01*
X115373637Y-67308000D01*
X115379613Y-67307715D01*
X115524745Y-67293868D01*
X115536480Y-67291609D01*
X115723268Y-67236812D01*
X115734351Y-67232379D01*
X115907406Y-67143249D01*
X115917461Y-67136793D01*
X116070537Y-67016551D01*
X116079190Y-67008311D01*
X116206760Y-66861299D01*
X116213702Y-66851567D01*
X116311177Y-66683076D01*
X116316150Y-66672215D01*
X116379065Y-66491038D01*
X116377918Y-66482993D01*
X116364349Y-66479000D01*
X115272115Y-66479000D01*
X115256876Y-66483475D01*
X115255671Y-66484865D01*
X115254000Y-66492548D01*
X115254000Y-67289885D01*
X114746000Y-67289885D01*
X114746000Y-66497115D01*
X114741525Y-66481876D01*
X114740135Y-66480671D01*
X114732452Y-66479000D01*
X113640314Y-66479000D01*
X113626783Y-66482973D01*
X113625428Y-66492399D01*
X81508500Y-66492399D01*
X81508500Y-65247064D01*
X82107707Y-65247064D01*
X82136825Y-65439599D01*
X82139028Y-65445585D01*
X82139029Y-65445591D01*
X82201860Y-65616360D01*
X82201862Y-65616365D01*
X82204063Y-65622346D01*
X82207425Y-65627768D01*
X82300440Y-65777785D01*
X82306674Y-65787840D01*
X82440466Y-65929322D01*
X82445696Y-65932984D01*
X82445697Y-65932985D01*
X82505695Y-65974996D01*
X82599975Y-66041011D01*
X82605838Y-66043548D01*
X82772825Y-66115810D01*
X82772829Y-66115811D01*
X82778684Y-66118345D01*
X82784931Y-66119650D01*
X82784934Y-66119651D01*
X82964557Y-66157176D01*
X82964562Y-66157177D01*
X82969293Y-66158165D01*
X82975685Y-66158500D01*
X83118663Y-66158500D01*
X83187951Y-66151462D01*
X83257378Y-66144410D01*
X83257379Y-66144410D01*
X83263727Y-66143765D01*
X83344843Y-66118345D01*
X83392582Y-66103385D01*
X109722088Y-66103385D01*
X109722793Y-66117470D01*
X109731672Y-66121000D01*
X110927885Y-66121000D01*
X110943124Y-66116525D01*
X110944329Y-66115135D01*
X110946000Y-66107452D01*
X110946000Y-66102885D01*
X111454000Y-66102885D01*
X111458475Y-66118124D01*
X111459865Y-66119329D01*
X111467548Y-66121000D01*
X112668226Y-66121000D01*
X112682210Y-66116894D01*
X112683384Y-66109330D01*
X112637125Y-65958962D01*
X113620935Y-65958962D01*
X113622082Y-65967007D01*
X113635651Y-65971000D01*
X114727885Y-65971000D01*
X114743124Y-65966525D01*
X114744329Y-65965135D01*
X114746000Y-65957452D01*
X114746000Y-65952885D01*
X115254000Y-65952885D01*
X115258475Y-65968124D01*
X115259865Y-65969329D01*
X115267548Y-65971000D01*
X116359686Y-65971000D01*
X116373217Y-65967027D01*
X116374572Y-65957601D01*
X116355060Y-65876639D01*
X116351171Y-65865344D01*
X116270600Y-65688137D01*
X116264653Y-65677795D01*
X116152021Y-65519013D01*
X116144228Y-65509984D01*
X116003607Y-65375369D01*
X115994232Y-65367965D01*
X115830708Y-65262380D01*
X115820094Y-65256879D01*
X115639551Y-65184117D01*
X115628102Y-65180725D01*
X115435609Y-65143134D01*
X115426799Y-65142064D01*
X115424172Y-65142000D01*
X115272115Y-65142000D01*
X115256876Y-65146475D01*
X115255671Y-65147865D01*
X115254000Y-65155548D01*
X115254000Y-65952885D01*
X114746000Y-65952885D01*
X114746000Y-65160115D01*
X114741525Y-65144876D01*
X114740135Y-65143671D01*
X114732452Y-65142000D01*
X114626363Y-65142000D01*
X114620387Y-65142285D01*
X114475255Y-65156132D01*
X114463520Y-65158391D01*
X114276732Y-65213188D01*
X114265649Y-65217621D01*
X114092594Y-65306751D01*
X114082539Y-65313207D01*
X113929463Y-65433449D01*
X113920810Y-65441689D01*
X113793240Y-65588701D01*
X113786298Y-65598433D01*
X113688823Y-65766924D01*
X113683850Y-65777785D01*
X113620935Y-65958962D01*
X112637125Y-65958962D01*
X112622862Y-65912600D01*
X112618641Y-65902256D01*
X112522836Y-65716638D01*
X112516851Y-65707207D01*
X112389686Y-65541483D01*
X112382130Y-65533266D01*
X112227631Y-65392682D01*
X112218732Y-65385928D01*
X112041789Y-65274931D01*
X112031823Y-65269854D01*
X111838031Y-65191950D01*
X111827316Y-65188715D01*
X111621814Y-65146157D01*
X111612678Y-65144954D01*
X111563265Y-65142105D01*
X111559618Y-65142000D01*
X111472115Y-65142000D01*
X111456876Y-65146475D01*
X111455671Y-65147865D01*
X111454000Y-65155548D01*
X111454000Y-66102885D01*
X110946000Y-66102885D01*
X110946000Y-65160115D01*
X110941525Y-65144876D01*
X110940135Y-65143671D01*
X110932452Y-65142000D01*
X110871959Y-65142000D01*
X110866364Y-65142249D01*
X110711367Y-65156083D01*
X110700353Y-65158065D01*
X110498884Y-65213180D01*
X110488411Y-65217074D01*
X110299877Y-65307001D01*
X110290262Y-65312687D01*
X110120635Y-65434576D01*
X110112169Y-65441884D01*
X109966809Y-65591883D01*
X109959779Y-65600565D01*
X109843272Y-65773945D01*
X109837893Y-65783731D01*
X109753933Y-65974996D01*
X109750368Y-65985588D01*
X109722088Y-66103385D01*
X83392582Y-66103385D01*
X83443451Y-66087444D01*
X83443456Y-66087442D01*
X83449541Y-66085535D01*
X83536475Y-66037346D01*
X83614271Y-65994223D01*
X83614274Y-65994221D01*
X83619850Y-65991130D01*
X83624691Y-65986981D01*
X83624695Y-65986978D01*
X83762855Y-65868560D01*
X83767698Y-65864409D01*
X83830279Y-65783731D01*
X83883131Y-65715594D01*
X83887046Y-65710547D01*
X83898074Y-65688137D01*
X83970200Y-65541556D01*
X83973018Y-65535829D01*
X83979750Y-65509984D01*
X84020492Y-65353575D01*
X84020492Y-65353572D01*
X84022102Y-65347393D01*
X84028932Y-65217074D01*
X84031959Y-65159317D01*
X84031959Y-65159313D01*
X84032293Y-65152936D01*
X84003175Y-64960401D01*
X84000972Y-64954415D01*
X84000971Y-64954409D01*
X83938140Y-64783640D01*
X83938138Y-64783635D01*
X83935937Y-64777654D01*
X83833326Y-64612160D01*
X83699534Y-64470678D01*
X83540025Y-64358989D01*
X83492013Y-64338212D01*
X83367175Y-64284190D01*
X83367171Y-64284189D01*
X83361316Y-64281655D01*
X83355069Y-64280350D01*
X83355066Y-64280349D01*
X83175443Y-64242824D01*
X83175438Y-64242823D01*
X83170707Y-64241835D01*
X83164315Y-64241500D01*
X83021337Y-64241500D01*
X82952049Y-64248538D01*
X82882622Y-64255590D01*
X82882621Y-64255590D01*
X82876273Y-64256235D01*
X82819939Y-64273889D01*
X82696549Y-64312556D01*
X82696544Y-64312558D01*
X82690459Y-64314465D01*
X82614713Y-64356452D01*
X82525729Y-64405777D01*
X82525726Y-64405779D01*
X82520150Y-64408870D01*
X82515309Y-64413019D01*
X82515305Y-64413022D01*
X82452311Y-64467015D01*
X82372302Y-64535591D01*
X82252954Y-64689453D01*
X82250138Y-64695176D01*
X82250136Y-64695179D01*
X82206608Y-64783640D01*
X82166982Y-64864171D01*
X82165373Y-64870349D01*
X82165372Y-64870351D01*
X82143477Y-64954409D01*
X82117898Y-65052607D01*
X82117564Y-65058986D01*
X82109279Y-65217074D01*
X82107707Y-65247064D01*
X81508500Y-65247064D01*
X81508500Y-59053250D01*
X81510246Y-59032345D01*
X81512770Y-59017344D01*
X81512770Y-59017341D01*
X81513576Y-59012552D01*
X81513729Y-59000000D01*
X82386526Y-59000000D01*
X82406391Y-59252403D01*
X82407545Y-59257210D01*
X82407546Y-59257216D01*
X82432069Y-59359362D01*
X82465495Y-59498591D01*
X82467388Y-59503162D01*
X82467389Y-59503164D01*
X82539950Y-59678341D01*
X82562384Y-59732502D01*
X82694672Y-59948376D01*
X82859102Y-60140898D01*
X83051624Y-60305328D01*
X83267498Y-60437616D01*
X83272068Y-60439509D01*
X83272072Y-60439511D01*
X83496836Y-60532611D01*
X83501409Y-60534505D01*
X83586032Y-60554821D01*
X83742784Y-60592454D01*
X83742790Y-60592455D01*
X83747597Y-60593609D01*
X83847416Y-60601465D01*
X83934345Y-60608307D01*
X83934352Y-60608307D01*
X83936801Y-60608500D01*
X84063199Y-60608500D01*
X84065648Y-60608307D01*
X84065655Y-60608307D01*
X84152584Y-60601465D01*
X84252403Y-60593609D01*
X84257210Y-60592455D01*
X84257216Y-60592454D01*
X84413968Y-60554821D01*
X84498591Y-60534505D01*
X84503164Y-60532611D01*
X84727928Y-60439511D01*
X84727932Y-60439509D01*
X84732502Y-60437616D01*
X84948376Y-60305328D01*
X85140898Y-60140898D01*
X85305328Y-59948376D01*
X85437616Y-59732502D01*
X85460051Y-59678341D01*
X85532611Y-59503164D01*
X85532612Y-59503162D01*
X85534505Y-59498591D01*
X85567931Y-59359362D01*
X85592454Y-59257216D01*
X85592455Y-59257210D01*
X85593609Y-59252403D01*
X85613474Y-59000000D01*
X85610953Y-58967966D01*
X88948257Y-58967966D01*
X88978565Y-59102446D01*
X88981645Y-59112275D01*
X89061770Y-59309603D01*
X89066413Y-59318794D01*
X89177694Y-59500388D01*
X89183777Y-59508699D01*
X89323213Y-59669667D01*
X89330580Y-59676883D01*
X89494434Y-59812916D01*
X89502881Y-59818831D01*
X89686756Y-59926279D01*
X89696042Y-59930729D01*
X89895001Y-60006703D01*
X89904899Y-60009579D01*
X90008250Y-60030606D01*
X90022299Y-60029410D01*
X90026000Y-60019065D01*
X90026000Y-60018517D01*
X90534000Y-60018517D01*
X90538064Y-60032359D01*
X90551478Y-60034393D01*
X90558184Y-60033534D01*
X90568262Y-60031392D01*
X90772255Y-59970191D01*
X90781842Y-59966433D01*
X90973095Y-59872739D01*
X90981945Y-59867464D01*
X91155328Y-59743792D01*
X91163200Y-59737139D01*
X91314052Y-59586812D01*
X91320730Y-59578965D01*
X91448022Y-59401819D01*
X91449279Y-59402722D01*
X91496373Y-59359362D01*
X91566311Y-59347145D01*
X91631751Y-59374678D01*
X91659579Y-59406511D01*
X91719987Y-59505088D01*
X91866250Y-59673938D01*
X92038126Y-59816632D01*
X92231000Y-59929338D01*
X92439692Y-60009030D01*
X92444760Y-60010061D01*
X92444763Y-60010062D01*
X92539862Y-60029410D01*
X92658597Y-60053567D01*
X92663772Y-60053757D01*
X92663774Y-60053757D01*
X92876673Y-60061564D01*
X92876677Y-60061564D01*
X92881837Y-60061753D01*
X92886957Y-60061097D01*
X92886959Y-60061097D01*
X93098288Y-60034025D01*
X93098289Y-60034025D01*
X93103416Y-60033368D01*
X93108366Y-60031883D01*
X93312429Y-59970661D01*
X93312434Y-59970659D01*
X93317384Y-59969174D01*
X93517994Y-59870896D01*
X93699860Y-59741173D01*
X93708562Y-59732502D01*
X93794124Y-59647238D01*
X93858096Y-59583489D01*
X93988453Y-59402077D01*
X93989776Y-59403028D01*
X94036645Y-59359857D01*
X94106580Y-59347625D01*
X94172026Y-59375144D01*
X94199875Y-59406994D01*
X94259987Y-59505088D01*
X94406250Y-59673938D01*
X94578126Y-59816632D01*
X94771000Y-59929338D01*
X94979692Y-60009030D01*
X94984760Y-60010061D01*
X94984763Y-60010062D01*
X95079862Y-60029410D01*
X95198597Y-60053567D01*
X95203772Y-60053757D01*
X95203774Y-60053757D01*
X95416673Y-60061564D01*
X95416677Y-60061564D01*
X95421837Y-60061753D01*
X95426957Y-60061097D01*
X95426959Y-60061097D01*
X95638288Y-60034025D01*
X95638289Y-60034025D01*
X95643416Y-60033368D01*
X95648366Y-60031883D01*
X95852429Y-59970661D01*
X95852434Y-59970659D01*
X95857384Y-59969174D01*
X96057994Y-59870896D01*
X96239860Y-59741173D01*
X96348091Y-59633319D01*
X96410462Y-59599404D01*
X96481268Y-59604592D01*
X96538030Y-59647238D01*
X96555012Y-59678341D01*
X96575316Y-59732502D01*
X96599385Y-59796705D01*
X96686739Y-59913261D01*
X96803295Y-60000615D01*
X96939684Y-60051745D01*
X97001866Y-60058500D01*
X98798134Y-60058500D01*
X98860316Y-60051745D01*
X98996705Y-60000615D01*
X99113261Y-59913261D01*
X99200615Y-59796705D01*
X99251745Y-59660316D01*
X99258500Y-59598134D01*
X99258500Y-58967966D01*
X100848257Y-58967966D01*
X100878565Y-59102446D01*
X100881645Y-59112275D01*
X100961770Y-59309603D01*
X100966413Y-59318794D01*
X101077694Y-59500388D01*
X101083777Y-59508699D01*
X101223213Y-59669667D01*
X101230580Y-59676883D01*
X101394434Y-59812916D01*
X101402881Y-59818831D01*
X101586756Y-59926279D01*
X101596042Y-59930729D01*
X101795001Y-60006703D01*
X101804899Y-60009579D01*
X101908250Y-60030606D01*
X101922299Y-60029410D01*
X101926000Y-60019065D01*
X101926000Y-60018517D01*
X102434000Y-60018517D01*
X102438064Y-60032359D01*
X102451478Y-60034393D01*
X102458184Y-60033534D01*
X102468262Y-60031392D01*
X102672255Y-59970191D01*
X102681842Y-59966433D01*
X102873095Y-59872739D01*
X102881945Y-59867464D01*
X103055328Y-59743792D01*
X103063200Y-59737139D01*
X103214052Y-59586812D01*
X103220730Y-59578965D01*
X103348022Y-59401819D01*
X103349279Y-59402722D01*
X103396373Y-59359362D01*
X103466311Y-59347145D01*
X103531751Y-59374678D01*
X103559579Y-59406511D01*
X103619987Y-59505088D01*
X103766250Y-59673938D01*
X103938126Y-59816632D01*
X104131000Y-59929338D01*
X104339692Y-60009030D01*
X104344760Y-60010061D01*
X104344763Y-60010062D01*
X104439862Y-60029410D01*
X104558597Y-60053567D01*
X104563772Y-60053757D01*
X104563774Y-60053757D01*
X104776673Y-60061564D01*
X104776677Y-60061564D01*
X104781837Y-60061753D01*
X104786957Y-60061097D01*
X104786959Y-60061097D01*
X104998288Y-60034025D01*
X104998289Y-60034025D01*
X105003416Y-60033368D01*
X105008366Y-60031883D01*
X105212429Y-59970661D01*
X105212434Y-59970659D01*
X105217384Y-59969174D01*
X105417994Y-59870896D01*
X105599860Y-59741173D01*
X105608562Y-59732502D01*
X105694124Y-59647238D01*
X105758096Y-59583489D01*
X105888453Y-59402077D01*
X105889776Y-59403028D01*
X105936645Y-59359857D01*
X106006580Y-59347625D01*
X106072026Y-59375144D01*
X106099875Y-59406994D01*
X106159987Y-59505088D01*
X106306250Y-59673938D01*
X106478126Y-59816632D01*
X106671000Y-59929338D01*
X106879692Y-60009030D01*
X106884760Y-60010061D01*
X106884763Y-60010062D01*
X106979862Y-60029410D01*
X107098597Y-60053567D01*
X107103772Y-60053757D01*
X107103774Y-60053757D01*
X107316673Y-60061564D01*
X107316677Y-60061564D01*
X107321837Y-60061753D01*
X107326957Y-60061097D01*
X107326959Y-60061097D01*
X107538288Y-60034025D01*
X107538289Y-60034025D01*
X107543416Y-60033368D01*
X107548366Y-60031883D01*
X107752429Y-59970661D01*
X107752434Y-59970659D01*
X107757384Y-59969174D01*
X107957994Y-59870896D01*
X108139860Y-59741173D01*
X108248091Y-59633319D01*
X108310462Y-59599404D01*
X108381268Y-59604592D01*
X108438030Y-59647238D01*
X108455012Y-59678341D01*
X108475316Y-59732502D01*
X108499385Y-59796705D01*
X108586739Y-59913261D01*
X108703295Y-60000615D01*
X108839684Y-60051745D01*
X108901866Y-60058500D01*
X110698134Y-60058500D01*
X110760316Y-60051745D01*
X110896705Y-60000615D01*
X111013261Y-59913261D01*
X111100615Y-59796705D01*
X111151745Y-59660316D01*
X111158500Y-59598134D01*
X111158500Y-59000000D01*
X113386526Y-59000000D01*
X113406391Y-59252403D01*
X113407545Y-59257210D01*
X113407546Y-59257216D01*
X113432069Y-59359362D01*
X113465495Y-59498591D01*
X113467388Y-59503162D01*
X113467389Y-59503164D01*
X113539950Y-59678341D01*
X113562384Y-59732502D01*
X113694672Y-59948376D01*
X113859102Y-60140898D01*
X114051624Y-60305328D01*
X114267498Y-60437616D01*
X114272068Y-60439509D01*
X114272072Y-60439511D01*
X114496836Y-60532611D01*
X114501409Y-60534505D01*
X114586032Y-60554821D01*
X114742784Y-60592454D01*
X114742790Y-60592455D01*
X114747597Y-60593609D01*
X114847416Y-60601465D01*
X114934345Y-60608307D01*
X114934352Y-60608307D01*
X114936801Y-60608500D01*
X115063199Y-60608500D01*
X115065648Y-60608307D01*
X115065655Y-60608307D01*
X115152584Y-60601465D01*
X115252403Y-60593609D01*
X115257210Y-60592455D01*
X115257216Y-60592454D01*
X115413968Y-60554821D01*
X115498591Y-60534505D01*
X115503164Y-60532611D01*
X115727928Y-60439511D01*
X115727932Y-60439509D01*
X115732502Y-60437616D01*
X115948376Y-60305328D01*
X116140898Y-60140898D01*
X116305328Y-59948376D01*
X116437616Y-59732502D01*
X116460051Y-59678341D01*
X116532611Y-59503164D01*
X116532612Y-59503162D01*
X116534505Y-59498591D01*
X116567931Y-59359362D01*
X116592454Y-59257216D01*
X116592455Y-59257210D01*
X116593609Y-59252403D01*
X116613474Y-59000000D01*
X116593609Y-58747597D01*
X116583933Y-58707290D01*
X116535660Y-58506221D01*
X116534505Y-58501409D01*
X116510962Y-58444570D01*
X116439511Y-58272072D01*
X116439509Y-58272068D01*
X116437616Y-58267498D01*
X116305328Y-58051624D01*
X116140898Y-57859102D01*
X115948376Y-57694672D01*
X115732502Y-57562384D01*
X115727932Y-57560491D01*
X115727928Y-57560489D01*
X115503164Y-57467389D01*
X115503162Y-57467388D01*
X115498591Y-57465495D01*
X115406379Y-57443357D01*
X115257216Y-57407546D01*
X115257210Y-57407545D01*
X115252403Y-57406391D01*
X115152584Y-57398535D01*
X115065655Y-57391693D01*
X115065648Y-57391693D01*
X115063199Y-57391500D01*
X114936801Y-57391500D01*
X114934352Y-57391693D01*
X114934345Y-57391693D01*
X114847416Y-57398535D01*
X114747597Y-57406391D01*
X114742790Y-57407545D01*
X114742784Y-57407546D01*
X114593621Y-57443357D01*
X114501409Y-57465495D01*
X114496838Y-57467388D01*
X114496836Y-57467389D01*
X114272072Y-57560489D01*
X114272068Y-57560491D01*
X114267498Y-57562384D01*
X114051624Y-57694672D01*
X113859102Y-57859102D01*
X113694672Y-58051624D01*
X113562384Y-58267498D01*
X113560491Y-58272068D01*
X113560489Y-58272072D01*
X113489038Y-58444570D01*
X113465495Y-58501409D01*
X113464340Y-58506221D01*
X113416068Y-58707290D01*
X113406391Y-58747597D01*
X113386526Y-59000000D01*
X111158500Y-59000000D01*
X111158500Y-57801866D01*
X111151745Y-57739684D01*
X111100615Y-57603295D01*
X111013261Y-57486739D01*
X110896705Y-57399385D01*
X110760316Y-57348255D01*
X110698134Y-57341500D01*
X108901866Y-57341500D01*
X108839684Y-57348255D01*
X108703295Y-57399385D01*
X108586739Y-57486739D01*
X108499385Y-57603295D01*
X108496233Y-57611703D01*
X108454919Y-57721907D01*
X108412277Y-57778671D01*
X108345716Y-57803371D01*
X108276367Y-57788163D01*
X108243743Y-57762476D01*
X108193151Y-57706875D01*
X108193142Y-57706866D01*
X108189670Y-57703051D01*
X108185619Y-57699852D01*
X108185615Y-57699848D01*
X108018414Y-57567800D01*
X108018410Y-57567798D01*
X108014359Y-57564598D01*
X107978028Y-57544542D01*
X107962136Y-57535769D01*
X107818789Y-57456638D01*
X107813920Y-57454914D01*
X107813916Y-57454912D01*
X107613087Y-57383795D01*
X107613083Y-57383794D01*
X107608212Y-57382069D01*
X107603119Y-57381162D01*
X107603116Y-57381161D01*
X107393373Y-57343800D01*
X107393367Y-57343799D01*
X107388284Y-57342894D01*
X107314452Y-57341992D01*
X107170081Y-57340228D01*
X107170079Y-57340228D01*
X107164911Y-57340165D01*
X106944091Y-57373955D01*
X106731756Y-57443357D01*
X106533607Y-57546507D01*
X106529474Y-57549610D01*
X106529471Y-57549612D01*
X106388127Y-57655736D01*
X106354965Y-57680635D01*
X106329541Y-57707240D01*
X106261280Y-57778671D01*
X106200629Y-57842138D01*
X106093201Y-57999621D01*
X106038293Y-58044621D01*
X105967768Y-58052792D01*
X105904021Y-58021538D01*
X105883324Y-57997054D01*
X105802822Y-57872617D01*
X105802820Y-57872614D01*
X105800014Y-57868277D01*
X105649670Y-57703051D01*
X105645619Y-57699852D01*
X105645615Y-57699848D01*
X105478414Y-57567800D01*
X105478410Y-57567798D01*
X105474359Y-57564598D01*
X105438028Y-57544542D01*
X105422136Y-57535769D01*
X105278789Y-57456638D01*
X105273920Y-57454914D01*
X105273916Y-57454912D01*
X105073087Y-57383795D01*
X105073083Y-57383794D01*
X105068212Y-57382069D01*
X105063119Y-57381162D01*
X105063116Y-57381161D01*
X104853373Y-57343800D01*
X104853367Y-57343799D01*
X104848284Y-57342894D01*
X104774452Y-57341992D01*
X104630081Y-57340228D01*
X104630079Y-57340228D01*
X104624911Y-57340165D01*
X104404091Y-57373955D01*
X104191756Y-57443357D01*
X103993607Y-57546507D01*
X103989474Y-57549610D01*
X103989471Y-57549612D01*
X103848127Y-57655736D01*
X103814965Y-57680635D01*
X103789541Y-57707240D01*
X103721280Y-57778671D01*
X103660629Y-57842138D01*
X103657720Y-57846403D01*
X103657714Y-57846411D01*
X103655884Y-57849094D01*
X103553204Y-57999618D01*
X103552898Y-58000066D01*
X103497987Y-58045069D01*
X103427462Y-58053240D01*
X103363715Y-58021986D01*
X103343018Y-57997502D01*
X103262426Y-57872926D01*
X103256136Y-57864757D01*
X103112806Y-57707240D01*
X103105273Y-57700215D01*
X102938139Y-57568222D01*
X102929552Y-57562517D01*
X102743117Y-57459599D01*
X102733705Y-57455369D01*
X102532959Y-57384280D01*
X102522988Y-57381646D01*
X102451837Y-57368972D01*
X102438540Y-57370432D01*
X102434000Y-57384989D01*
X102434000Y-60018517D01*
X101926000Y-60018517D01*
X101926000Y-58972115D01*
X101921525Y-58956876D01*
X101920135Y-58955671D01*
X101912452Y-58954000D01*
X100863225Y-58954000D01*
X100849694Y-58957973D01*
X100848257Y-58967966D01*
X99258500Y-58967966D01*
X99258500Y-58434183D01*
X100844389Y-58434183D01*
X100845912Y-58442607D01*
X100858292Y-58446000D01*
X101907885Y-58446000D01*
X101923124Y-58441525D01*
X101924329Y-58440135D01*
X101926000Y-58432452D01*
X101926000Y-57383102D01*
X101922082Y-57369758D01*
X101907806Y-57367771D01*
X101869324Y-57373660D01*
X101859288Y-57376051D01*
X101656868Y-57442212D01*
X101647359Y-57446209D01*
X101458463Y-57544542D01*
X101449738Y-57550036D01*
X101279433Y-57677905D01*
X101271726Y-57684748D01*
X101124590Y-57838717D01*
X101118104Y-57846727D01*
X100998098Y-58022649D01*
X100993000Y-58031623D01*
X100903338Y-58224783D01*
X100899775Y-58234470D01*
X100844389Y-58434183D01*
X99258500Y-58434183D01*
X99258500Y-57801866D01*
X99251745Y-57739684D01*
X99200615Y-57603295D01*
X99113261Y-57486739D01*
X98996705Y-57399385D01*
X98860316Y-57348255D01*
X98798134Y-57341500D01*
X97001866Y-57341500D01*
X96939684Y-57348255D01*
X96803295Y-57399385D01*
X96686739Y-57486739D01*
X96599385Y-57603295D01*
X96596233Y-57611703D01*
X96554919Y-57721907D01*
X96512277Y-57778671D01*
X96445716Y-57803371D01*
X96376367Y-57788163D01*
X96343743Y-57762476D01*
X96293151Y-57706875D01*
X96293142Y-57706866D01*
X96289670Y-57703051D01*
X96285619Y-57699852D01*
X96285615Y-57699848D01*
X96118414Y-57567800D01*
X96118410Y-57567798D01*
X96114359Y-57564598D01*
X96078028Y-57544542D01*
X96062136Y-57535769D01*
X95918789Y-57456638D01*
X95913920Y-57454914D01*
X95913916Y-57454912D01*
X95713087Y-57383795D01*
X95713083Y-57383794D01*
X95708212Y-57382069D01*
X95703119Y-57381162D01*
X95703116Y-57381161D01*
X95493373Y-57343800D01*
X95493367Y-57343799D01*
X95488284Y-57342894D01*
X95414452Y-57341992D01*
X95270081Y-57340228D01*
X95270079Y-57340228D01*
X95264911Y-57340165D01*
X95044091Y-57373955D01*
X94831756Y-57443357D01*
X94633607Y-57546507D01*
X94629474Y-57549610D01*
X94629471Y-57549612D01*
X94488127Y-57655736D01*
X94454965Y-57680635D01*
X94429541Y-57707240D01*
X94361280Y-57778671D01*
X94300629Y-57842138D01*
X94193201Y-57999621D01*
X94138293Y-58044621D01*
X94067768Y-58052792D01*
X94004021Y-58021538D01*
X93983324Y-57997054D01*
X93902822Y-57872617D01*
X93902820Y-57872614D01*
X93900014Y-57868277D01*
X93749670Y-57703051D01*
X93745619Y-57699852D01*
X93745615Y-57699848D01*
X93578414Y-57567800D01*
X93578410Y-57567798D01*
X93574359Y-57564598D01*
X93538028Y-57544542D01*
X93522136Y-57535769D01*
X93378789Y-57456638D01*
X93373920Y-57454914D01*
X93373916Y-57454912D01*
X93173087Y-57383795D01*
X93173083Y-57383794D01*
X93168212Y-57382069D01*
X93163119Y-57381162D01*
X93163116Y-57381161D01*
X92953373Y-57343800D01*
X92953367Y-57343799D01*
X92948284Y-57342894D01*
X92874452Y-57341992D01*
X92730081Y-57340228D01*
X92730079Y-57340228D01*
X92724911Y-57340165D01*
X92504091Y-57373955D01*
X92291756Y-57443357D01*
X92093607Y-57546507D01*
X92089474Y-57549610D01*
X92089471Y-57549612D01*
X91948127Y-57655736D01*
X91914965Y-57680635D01*
X91889541Y-57707240D01*
X91821280Y-57778671D01*
X91760629Y-57842138D01*
X91757720Y-57846403D01*
X91757714Y-57846411D01*
X91755884Y-57849094D01*
X91653204Y-57999618D01*
X91652898Y-58000066D01*
X91597987Y-58045069D01*
X91527462Y-58053240D01*
X91463715Y-58021986D01*
X91443018Y-57997502D01*
X91362426Y-57872926D01*
X91356136Y-57864757D01*
X91212806Y-57707240D01*
X91205273Y-57700215D01*
X91038139Y-57568222D01*
X91029552Y-57562517D01*
X90843117Y-57459599D01*
X90833705Y-57455369D01*
X90632959Y-57384280D01*
X90622988Y-57381646D01*
X90551837Y-57368972D01*
X90538540Y-57370432D01*
X90534000Y-57384989D01*
X90534000Y-60018517D01*
X90026000Y-60018517D01*
X90026000Y-58972115D01*
X90021525Y-58956876D01*
X90020135Y-58955671D01*
X90012452Y-58954000D01*
X88963225Y-58954000D01*
X88949694Y-58957973D01*
X88948257Y-58967966D01*
X85610953Y-58967966D01*
X85593609Y-58747597D01*
X85583933Y-58707290D01*
X85535660Y-58506221D01*
X85534505Y-58501409D01*
X85510962Y-58444570D01*
X85506660Y-58434183D01*
X88944389Y-58434183D01*
X88945912Y-58442607D01*
X88958292Y-58446000D01*
X90007885Y-58446000D01*
X90023124Y-58441525D01*
X90024329Y-58440135D01*
X90026000Y-58432452D01*
X90026000Y-57383102D01*
X90022082Y-57369758D01*
X90007806Y-57367771D01*
X89969324Y-57373660D01*
X89959288Y-57376051D01*
X89756868Y-57442212D01*
X89747359Y-57446209D01*
X89558463Y-57544542D01*
X89549738Y-57550036D01*
X89379433Y-57677905D01*
X89371726Y-57684748D01*
X89224590Y-57838717D01*
X89218104Y-57846727D01*
X89098098Y-58022649D01*
X89093000Y-58031623D01*
X89003338Y-58224783D01*
X88999775Y-58234470D01*
X88944389Y-58434183D01*
X85506660Y-58434183D01*
X85439511Y-58272072D01*
X85439509Y-58272068D01*
X85437616Y-58267498D01*
X85305328Y-58051624D01*
X85140898Y-57859102D01*
X84948376Y-57694672D01*
X84732502Y-57562384D01*
X84727932Y-57560491D01*
X84727928Y-57560489D01*
X84503164Y-57467389D01*
X84503162Y-57467388D01*
X84498591Y-57465495D01*
X84406379Y-57443357D01*
X84257216Y-57407546D01*
X84257210Y-57407545D01*
X84252403Y-57406391D01*
X84152584Y-57398535D01*
X84065655Y-57391693D01*
X84065648Y-57391693D01*
X84063199Y-57391500D01*
X83936801Y-57391500D01*
X83934352Y-57391693D01*
X83934345Y-57391693D01*
X83847416Y-57398535D01*
X83747597Y-57406391D01*
X83742790Y-57407545D01*
X83742784Y-57407546D01*
X83593621Y-57443357D01*
X83501409Y-57465495D01*
X83496838Y-57467388D01*
X83496836Y-57467389D01*
X83272072Y-57560489D01*
X83272068Y-57560491D01*
X83267498Y-57562384D01*
X83051624Y-57694672D01*
X82859102Y-57859102D01*
X82694672Y-58051624D01*
X82562384Y-58267498D01*
X82560491Y-58272068D01*
X82560489Y-58272072D01*
X82489038Y-58444570D01*
X82465495Y-58501409D01*
X82464340Y-58506221D01*
X82416068Y-58707290D01*
X82406391Y-58747597D01*
X82386526Y-59000000D01*
X81513729Y-59000000D01*
X81513040Y-58995186D01*
X81513039Y-58995177D01*
X81511869Y-58987006D01*
X81510827Y-58961540D01*
X81526206Y-58707290D01*
X81528040Y-58692186D01*
X81562119Y-58506221D01*
X81579525Y-58411240D01*
X81583164Y-58396473D01*
X81621929Y-58272072D01*
X81668142Y-58123769D01*
X81673534Y-58109555D01*
X81790758Y-57849092D01*
X81797828Y-57835621D01*
X81945595Y-57591187D01*
X81954238Y-57578666D01*
X82115230Y-57373173D01*
X82130386Y-57353828D01*
X82140475Y-57342440D01*
X82342440Y-57140475D01*
X82353829Y-57130385D01*
X82578666Y-56954238D01*
X82591187Y-56945595D01*
X82835621Y-56797828D01*
X82849094Y-56790757D01*
X82891777Y-56771547D01*
X83109555Y-56673534D01*
X83123769Y-56668142D01*
X83396474Y-56583164D01*
X83411240Y-56579525D01*
X83620214Y-56541229D01*
X83692186Y-56528040D01*
X83707290Y-56526206D01*
X83957904Y-56511047D01*
X83984716Y-56512308D01*
X83984852Y-56512310D01*
X83993724Y-56513691D01*
X84002626Y-56512527D01*
X84002628Y-56512527D01*
X84017677Y-56510559D01*
X84025286Y-56509564D01*
X84041621Y-56508500D01*
X114950633Y-56508500D01*
X114970018Y-56510000D01*
G37*
%TD.AperFunction*%
%TD*%
M02*
